G04 #@! TF.GenerationSoftware,KiCad,Pcbnew,(6.0.0)*
G04 #@! TF.CreationDate,2022-10-22T07:28:46+03:00*
G04 #@! TF.ProjectId,Voltlog Microscope PDU,566f6c74-6c6f-4672-904d-6963726f7363,rev?*
G04 #@! TF.SameCoordinates,Original*
G04 #@! TF.FileFunction,Legend,Bot*
G04 #@! TF.FilePolarity,Positive*
%FSLAX46Y46*%
G04 Gerber Fmt 4.6, Leading zero omitted, Abs format (unit mm)*
G04 Created by KiCad (PCBNEW (6.0.0)) date 2022-10-22 07:28:46*
%MOMM*%
%LPD*%
G01*
G04 APERTURE LIST*
%ADD10C,0.300000*%
%ADD11C,0.150000*%
%ADD12C,0.120000*%
G04 APERTURE END LIST*
D10*
X181714285Y-75035714D02*
X181785714Y-75107142D01*
X182000000Y-75178571D01*
X182142857Y-75178571D01*
X182357142Y-75107142D01*
X182500000Y-74964285D01*
X182571428Y-74821428D01*
X182642857Y-74535714D01*
X182642857Y-74321428D01*
X182571428Y-74035714D01*
X182500000Y-73892857D01*
X182357142Y-73750000D01*
X182142857Y-73678571D01*
X182000000Y-73678571D01*
X181785714Y-73750000D01*
X181714285Y-73821428D01*
X180857142Y-75178571D02*
X181000000Y-75107142D01*
X181071428Y-75035714D01*
X181142857Y-74892857D01*
X181142857Y-74464285D01*
X181071428Y-74321428D01*
X181000000Y-74250000D01*
X180857142Y-74178571D01*
X180642857Y-74178571D01*
X180500000Y-74250000D01*
X180428571Y-74321428D01*
X180357142Y-74464285D01*
X180357142Y-74892857D01*
X180428571Y-75035714D01*
X180500000Y-75107142D01*
X180642857Y-75178571D01*
X180857142Y-75178571D01*
X179714285Y-74178571D02*
X179714285Y-75178571D01*
X179714285Y-74321428D02*
X179642857Y-74250000D01*
X179500000Y-74178571D01*
X179285714Y-74178571D01*
X179142857Y-74250000D01*
X179071428Y-74392857D01*
X179071428Y-75178571D01*
X178357142Y-74178571D02*
X178357142Y-75178571D01*
X178357142Y-74321428D02*
X178285714Y-74250000D01*
X178142857Y-74178571D01*
X177928571Y-74178571D01*
X177785714Y-74250000D01*
X177714285Y-74392857D01*
X177714285Y-75178571D01*
X176428571Y-75107142D02*
X176571428Y-75178571D01*
X176857142Y-75178571D01*
X177000000Y-75107142D01*
X177071428Y-74964285D01*
X177071428Y-74392857D01*
X177000000Y-74250000D01*
X176857142Y-74178571D01*
X176571428Y-74178571D01*
X176428571Y-74250000D01*
X176357142Y-74392857D01*
X176357142Y-74535714D01*
X177071428Y-74678571D01*
X175071428Y-75107142D02*
X175214285Y-75178571D01*
X175500000Y-75178571D01*
X175642857Y-75107142D01*
X175714285Y-75035714D01*
X175785714Y-74892857D01*
X175785714Y-74464285D01*
X175714285Y-74321428D01*
X175642857Y-74250000D01*
X175500000Y-74178571D01*
X175214285Y-74178571D01*
X175071428Y-74250000D01*
X174642857Y-74178571D02*
X174071428Y-74178571D01*
X174428571Y-73678571D02*
X174428571Y-74964285D01*
X174357142Y-75107142D01*
X174214285Y-75178571D01*
X174071428Y-75178571D01*
X172428571Y-75178571D02*
X172428571Y-73678571D01*
X172428571Y-74250000D02*
X172285714Y-74178571D01*
X172000000Y-74178571D01*
X171857142Y-74250000D01*
X171785714Y-74321428D01*
X171714285Y-74464285D01*
X171714285Y-74892857D01*
X171785714Y-75035714D01*
X171857142Y-75107142D01*
X172000000Y-75178571D01*
X172285714Y-75178571D01*
X172428571Y-75107142D01*
X171214285Y-74178571D02*
X170857142Y-75178571D01*
X170500000Y-74178571D02*
X170857142Y-75178571D01*
X171000000Y-75535714D01*
X171071428Y-75607142D01*
X171214285Y-75678571D01*
X169928571Y-74178571D02*
X169928571Y-75678571D01*
X169928571Y-74250000D02*
X169785714Y-74178571D01*
X169500000Y-74178571D01*
X169357142Y-74250000D01*
X169285714Y-74321428D01*
X169214285Y-74464285D01*
X169214285Y-74892857D01*
X169285714Y-75035714D01*
X169357142Y-75107142D01*
X169500000Y-75178571D01*
X169785714Y-75178571D01*
X169928571Y-75107142D01*
X167928571Y-75178571D02*
X167928571Y-74392857D01*
X168000000Y-74250000D01*
X168142857Y-74178571D01*
X168428571Y-74178571D01*
X168571428Y-74250000D01*
X167928571Y-75107142D02*
X168071428Y-75178571D01*
X168428571Y-75178571D01*
X168571428Y-75107142D01*
X168642857Y-74964285D01*
X168642857Y-74821428D01*
X168571428Y-74678571D01*
X168428571Y-74607142D01*
X168071428Y-74607142D01*
X167928571Y-74535714D01*
X167285714Y-75107142D02*
X167142857Y-75178571D01*
X166857142Y-75178571D01*
X166714285Y-75107142D01*
X166642857Y-74964285D01*
X166642857Y-74892857D01*
X166714285Y-74750000D01*
X166857142Y-74678571D01*
X167071428Y-74678571D01*
X167214285Y-74607142D01*
X167285714Y-74464285D01*
X167285714Y-74392857D01*
X167214285Y-74250000D01*
X167071428Y-74178571D01*
X166857142Y-74178571D01*
X166714285Y-74250000D01*
X166071428Y-75107142D02*
X165928571Y-75178571D01*
X165642857Y-75178571D01*
X165500000Y-75107142D01*
X165428571Y-74964285D01*
X165428571Y-74892857D01*
X165500000Y-74750000D01*
X165642857Y-74678571D01*
X165857142Y-74678571D01*
X166000000Y-74607142D01*
X166071428Y-74464285D01*
X166071428Y-74392857D01*
X166000000Y-74250000D01*
X165857142Y-74178571D01*
X165642857Y-74178571D01*
X165500000Y-74250000D01*
X163642857Y-74178571D02*
X163642857Y-75464285D01*
X163714285Y-75607142D01*
X163857142Y-75678571D01*
X163928571Y-75678571D01*
X163642857Y-73678571D02*
X163714285Y-73750000D01*
X163642857Y-73821428D01*
X163571428Y-73750000D01*
X163642857Y-73678571D01*
X163642857Y-73821428D01*
X162285714Y-74178571D02*
X162285714Y-75178571D01*
X162928571Y-74178571D02*
X162928571Y-74964285D01*
X162857142Y-75107142D01*
X162714285Y-75178571D01*
X162500000Y-75178571D01*
X162357142Y-75107142D01*
X162285714Y-75035714D01*
X161571428Y-75178571D02*
X161571428Y-74178571D01*
X161571428Y-74321428D02*
X161500000Y-74250000D01*
X161357142Y-74178571D01*
X161142857Y-74178571D01*
X161000000Y-74250000D01*
X160928571Y-74392857D01*
X160928571Y-75178571D01*
X160928571Y-74392857D02*
X160857142Y-74250000D01*
X160714285Y-74178571D01*
X160500000Y-74178571D01*
X160357142Y-74250000D01*
X160285714Y-74392857D01*
X160285714Y-75178571D01*
X159571428Y-74178571D02*
X159571428Y-75678571D01*
X159571428Y-74250000D02*
X159428571Y-74178571D01*
X159142857Y-74178571D01*
X159000000Y-74250000D01*
X158928571Y-74321428D01*
X158857142Y-74464285D01*
X158857142Y-74892857D01*
X158928571Y-75035714D01*
X159000000Y-75107142D01*
X159142857Y-75178571D01*
X159428571Y-75178571D01*
X159571428Y-75107142D01*
X157642857Y-75107142D02*
X157785714Y-75178571D01*
X158071428Y-75178571D01*
X158214285Y-75107142D01*
X158285714Y-74964285D01*
X158285714Y-74392857D01*
X158214285Y-74250000D01*
X158071428Y-74178571D01*
X157785714Y-74178571D01*
X157642857Y-74250000D01*
X157571428Y-74392857D01*
X157571428Y-74535714D01*
X158285714Y-74678571D01*
X156928571Y-75178571D02*
X156928571Y-74178571D01*
X156928571Y-74464285D02*
X156857142Y-74321428D01*
X156785714Y-74250000D01*
X156642857Y-74178571D01*
X156500000Y-74178571D01*
X154857142Y-75178571D02*
X154857142Y-74178571D01*
X154857142Y-73678571D02*
X154928571Y-73750000D01*
X154857142Y-73821428D01*
X154785714Y-73750000D01*
X154857142Y-73678571D01*
X154857142Y-73821428D01*
X154357142Y-74178571D02*
X153785714Y-74178571D01*
X154142857Y-75178571D02*
X154142857Y-73892857D01*
X154071428Y-73750000D01*
X153928571Y-73678571D01*
X153785714Y-73678571D01*
X152142857Y-75178571D02*
X152142857Y-74178571D01*
X152142857Y-74464285D02*
X152071428Y-74321428D01*
X152000000Y-74250000D01*
X151857142Y-74178571D01*
X151714285Y-74178571D01*
X150642857Y-75107142D02*
X150785714Y-75178571D01*
X151071428Y-75178571D01*
X151214285Y-75107142D01*
X151285714Y-74964285D01*
X151285714Y-74392857D01*
X151214285Y-74250000D01*
X151071428Y-74178571D01*
X150785714Y-74178571D01*
X150642857Y-74250000D01*
X150571428Y-74392857D01*
X150571428Y-74535714D01*
X151285714Y-74678571D01*
X149285714Y-74178571D02*
X149285714Y-75392857D01*
X149357142Y-75535714D01*
X149428571Y-75607142D01*
X149571428Y-75678571D01*
X149785714Y-75678571D01*
X149928571Y-75607142D01*
X149285714Y-75107142D02*
X149428571Y-75178571D01*
X149714285Y-75178571D01*
X149857142Y-75107142D01*
X149928571Y-75035714D01*
X150000000Y-74892857D01*
X150000000Y-74464285D01*
X149928571Y-74321428D01*
X149857142Y-74250000D01*
X149714285Y-74178571D01*
X149428571Y-74178571D01*
X149285714Y-74250000D01*
X147428571Y-75178571D02*
X147428571Y-74178571D01*
X147428571Y-73678571D02*
X147500000Y-73750000D01*
X147428571Y-73821428D01*
X147357142Y-73750000D01*
X147428571Y-73678571D01*
X147428571Y-73821428D01*
X146785714Y-75107142D02*
X146642857Y-75178571D01*
X146357142Y-75178571D01*
X146214285Y-75107142D01*
X146142857Y-74964285D01*
X146142857Y-74892857D01*
X146214285Y-74750000D01*
X146357142Y-74678571D01*
X146571428Y-74678571D01*
X146714285Y-74607142D01*
X146785714Y-74464285D01*
X146785714Y-74392857D01*
X146714285Y-74250000D01*
X146571428Y-74178571D01*
X146357142Y-74178571D01*
X146214285Y-74250000D01*
X144357142Y-74178571D02*
X144357142Y-75178571D01*
X144357142Y-74321428D02*
X144285714Y-74250000D01*
X144142857Y-74178571D01*
X143928571Y-74178571D01*
X143785714Y-74250000D01*
X143714285Y-74392857D01*
X143714285Y-75178571D01*
X142785714Y-75178571D02*
X142928571Y-75107142D01*
X143000000Y-75035714D01*
X143071428Y-74892857D01*
X143071428Y-74464285D01*
X143000000Y-74321428D01*
X142928571Y-74250000D01*
X142785714Y-74178571D01*
X142571428Y-74178571D01*
X142428571Y-74250000D01*
X142357142Y-74321428D01*
X142285714Y-74464285D01*
X142285714Y-74892857D01*
X142357142Y-75035714D01*
X142428571Y-75107142D01*
X142571428Y-75178571D01*
X142785714Y-75178571D01*
X141857142Y-74178571D02*
X141285714Y-74178571D01*
X141642857Y-73678571D02*
X141642857Y-74964285D01*
X141571428Y-75107142D01*
X141428571Y-75178571D01*
X141285714Y-75178571D01*
X139642857Y-75178571D02*
X139642857Y-74178571D01*
X139642857Y-73678571D02*
X139714285Y-73750000D01*
X139642857Y-73821428D01*
X139571428Y-73750000D01*
X139642857Y-73678571D01*
X139642857Y-73821428D01*
X138928571Y-74178571D02*
X138928571Y-75178571D01*
X138928571Y-74321428D02*
X138857142Y-74250000D01*
X138714285Y-74178571D01*
X138500000Y-74178571D01*
X138357142Y-74250000D01*
X138285714Y-74392857D01*
X138285714Y-75178571D01*
X137642857Y-75107142D02*
X137500000Y-75178571D01*
X137214285Y-75178571D01*
X137071428Y-75107142D01*
X137000000Y-74964285D01*
X137000000Y-74892857D01*
X137071428Y-74750000D01*
X137214285Y-74678571D01*
X137428571Y-74678571D01*
X137571428Y-74607142D01*
X137642857Y-74464285D01*
X137642857Y-74392857D01*
X137571428Y-74250000D01*
X137428571Y-74178571D01*
X137214285Y-74178571D01*
X137071428Y-74250000D01*
X136571428Y-74178571D02*
X136000000Y-74178571D01*
X136357142Y-73678571D02*
X136357142Y-74964285D01*
X136285714Y-75107142D01*
X136142857Y-75178571D01*
X136000000Y-75178571D01*
X134857142Y-75178571D02*
X134857142Y-74392857D01*
X134928571Y-74250000D01*
X135071428Y-74178571D01*
X135357142Y-74178571D01*
X135500000Y-74250000D01*
X134857142Y-75107142D02*
X135000000Y-75178571D01*
X135357142Y-75178571D01*
X135500000Y-75107142D01*
X135571428Y-74964285D01*
X135571428Y-74821428D01*
X135500000Y-74678571D01*
X135357142Y-74607142D01*
X135000000Y-74607142D01*
X134857142Y-74535714D01*
X133928571Y-75178571D02*
X134071428Y-75107142D01*
X134142857Y-74964285D01*
X134142857Y-73678571D01*
X133142857Y-75178571D02*
X133285714Y-75107142D01*
X133357142Y-74964285D01*
X133357142Y-73678571D01*
X132000000Y-75107142D02*
X132142857Y-75178571D01*
X132428571Y-75178571D01*
X132571428Y-75107142D01*
X132642857Y-74964285D01*
X132642857Y-74392857D01*
X132571428Y-74250000D01*
X132428571Y-74178571D01*
X132142857Y-74178571D01*
X132000000Y-74250000D01*
X131928571Y-74392857D01*
X131928571Y-74535714D01*
X132642857Y-74678571D01*
X130642857Y-75178571D02*
X130642857Y-73678571D01*
X130642857Y-75107142D02*
X130785714Y-75178571D01*
X131071428Y-75178571D01*
X131214285Y-75107142D01*
X131285714Y-75035714D01*
X131357142Y-74892857D01*
X131357142Y-74464285D01*
X131285714Y-74321428D01*
X131214285Y-74250000D01*
X131071428Y-74178571D01*
X130785714Y-74178571D01*
X130642857Y-74250000D01*
X129928571Y-75035714D02*
X129857142Y-75107142D01*
X129928571Y-75178571D01*
X130000000Y-75107142D01*
X129928571Y-75035714D01*
X129928571Y-75178571D01*
D11*
X159238095Y-77428571D02*
X159095238Y-77476190D01*
X159047619Y-77523809D01*
X159000000Y-77619047D01*
X159000000Y-77761904D01*
X159047619Y-77857142D01*
X159095238Y-77904761D01*
X159190476Y-77952380D01*
X159571428Y-77952380D01*
X159571428Y-76952380D01*
X159238095Y-76952380D01*
X159142857Y-77000000D01*
X159095238Y-77047619D01*
X159047619Y-77142857D01*
X159047619Y-77238095D01*
X159095238Y-77333333D01*
X159142857Y-77380952D01*
X159238095Y-77428571D01*
X159571428Y-77428571D01*
X158380952Y-77476190D02*
X158380952Y-77952380D01*
X158714285Y-76952380D02*
X158380952Y-77476190D01*
X158047619Y-76952380D01*
X157714285Y-77952380D02*
X157714285Y-76952380D01*
X157333333Y-76952380D01*
X157238095Y-77000000D01*
X157190476Y-77047619D01*
X157142857Y-77142857D01*
X157142857Y-77285714D01*
X157190476Y-77380952D01*
X157238095Y-77428571D01*
X157333333Y-77476190D01*
X157714285Y-77476190D01*
X156761904Y-77666666D02*
X156285714Y-77666666D01*
X156857142Y-77952380D02*
X156523809Y-76952380D01*
X156190476Y-77952380D01*
X155904761Y-77904761D02*
X155761904Y-77952380D01*
X155523809Y-77952380D01*
X155428571Y-77904761D01*
X155380952Y-77857142D01*
X155333333Y-77761904D01*
X155333333Y-77666666D01*
X155380952Y-77571428D01*
X155428571Y-77523809D01*
X155523809Y-77476190D01*
X155714285Y-77428571D01*
X155809523Y-77380952D01*
X155857142Y-77333333D01*
X155904761Y-77238095D01*
X155904761Y-77142857D01*
X155857142Y-77047619D01*
X155809523Y-77000000D01*
X155714285Y-76952380D01*
X155476190Y-76952380D01*
X155333333Y-77000000D01*
X154952380Y-77904761D02*
X154809523Y-77952380D01*
X154571428Y-77952380D01*
X154476190Y-77904761D01*
X154428571Y-77857142D01*
X154380952Y-77761904D01*
X154380952Y-77666666D01*
X154428571Y-77571428D01*
X154476190Y-77523809D01*
X154571428Y-77476190D01*
X154761904Y-77428571D01*
X154857142Y-77380952D01*
X154904761Y-77333333D01*
X154952380Y-77238095D01*
X154952380Y-77142857D01*
X154904761Y-77047619D01*
X154857142Y-77000000D01*
X154761904Y-76952380D01*
X154523809Y-76952380D01*
X154380952Y-77000000D01*
X138988095Y-77428571D02*
X138845238Y-77476190D01*
X138797619Y-77523809D01*
X138750000Y-77619047D01*
X138750000Y-77761904D01*
X138797619Y-77857142D01*
X138845238Y-77904761D01*
X138940476Y-77952380D01*
X139321428Y-77952380D01*
X139321428Y-76952380D01*
X138988095Y-76952380D01*
X138892857Y-77000000D01*
X138845238Y-77047619D01*
X138797619Y-77142857D01*
X138797619Y-77238095D01*
X138845238Y-77333333D01*
X138892857Y-77380952D01*
X138988095Y-77428571D01*
X139321428Y-77428571D01*
X138130952Y-77476190D02*
X138130952Y-77952380D01*
X138464285Y-76952380D02*
X138130952Y-77476190D01*
X137797619Y-76952380D01*
X137464285Y-77952380D02*
X137464285Y-76952380D01*
X137083333Y-76952380D01*
X136988095Y-77000000D01*
X136940476Y-77047619D01*
X136892857Y-77142857D01*
X136892857Y-77285714D01*
X136940476Y-77380952D01*
X136988095Y-77428571D01*
X137083333Y-77476190D01*
X137464285Y-77476190D01*
X136511904Y-77666666D02*
X136035714Y-77666666D01*
X136607142Y-77952380D02*
X136273809Y-76952380D01*
X135940476Y-77952380D01*
X135654761Y-77904761D02*
X135511904Y-77952380D01*
X135273809Y-77952380D01*
X135178571Y-77904761D01*
X135130952Y-77857142D01*
X135083333Y-77761904D01*
X135083333Y-77666666D01*
X135130952Y-77571428D01*
X135178571Y-77523809D01*
X135273809Y-77476190D01*
X135464285Y-77428571D01*
X135559523Y-77380952D01*
X135607142Y-77333333D01*
X135654761Y-77238095D01*
X135654761Y-77142857D01*
X135607142Y-77047619D01*
X135559523Y-77000000D01*
X135464285Y-76952380D01*
X135226190Y-76952380D01*
X135083333Y-77000000D01*
X134702380Y-77904761D02*
X134559523Y-77952380D01*
X134321428Y-77952380D01*
X134226190Y-77904761D01*
X134178571Y-77857142D01*
X134130952Y-77761904D01*
X134130952Y-77666666D01*
X134178571Y-77571428D01*
X134226190Y-77523809D01*
X134321428Y-77476190D01*
X134511904Y-77428571D01*
X134607142Y-77380952D01*
X134654761Y-77333333D01*
X134702380Y-77238095D01*
X134702380Y-77142857D01*
X134654761Y-77047619D01*
X134607142Y-77000000D01*
X134511904Y-76952380D01*
X134273809Y-76952380D01*
X134130952Y-77000000D01*
X178738095Y-77428571D02*
X178595238Y-77476190D01*
X178547619Y-77523809D01*
X178500000Y-77619047D01*
X178500000Y-77761904D01*
X178547619Y-77857142D01*
X178595238Y-77904761D01*
X178690476Y-77952380D01*
X179071428Y-77952380D01*
X179071428Y-76952380D01*
X178738095Y-76952380D01*
X178642857Y-77000000D01*
X178595238Y-77047619D01*
X178547619Y-77142857D01*
X178547619Y-77238095D01*
X178595238Y-77333333D01*
X178642857Y-77380952D01*
X178738095Y-77428571D01*
X179071428Y-77428571D01*
X177880952Y-77476190D02*
X177880952Y-77952380D01*
X178214285Y-76952380D02*
X177880952Y-77476190D01*
X177547619Y-76952380D01*
X177214285Y-77952380D02*
X177214285Y-76952380D01*
X176833333Y-76952380D01*
X176738095Y-77000000D01*
X176690476Y-77047619D01*
X176642857Y-77142857D01*
X176642857Y-77285714D01*
X176690476Y-77380952D01*
X176738095Y-77428571D01*
X176833333Y-77476190D01*
X177214285Y-77476190D01*
X176261904Y-77666666D02*
X175785714Y-77666666D01*
X176357142Y-77952380D02*
X176023809Y-76952380D01*
X175690476Y-77952380D01*
X175404761Y-77904761D02*
X175261904Y-77952380D01*
X175023809Y-77952380D01*
X174928571Y-77904761D01*
X174880952Y-77857142D01*
X174833333Y-77761904D01*
X174833333Y-77666666D01*
X174880952Y-77571428D01*
X174928571Y-77523809D01*
X175023809Y-77476190D01*
X175214285Y-77428571D01*
X175309523Y-77380952D01*
X175357142Y-77333333D01*
X175404761Y-77238095D01*
X175404761Y-77142857D01*
X175357142Y-77047619D01*
X175309523Y-77000000D01*
X175214285Y-76952380D01*
X174976190Y-76952380D01*
X174833333Y-77000000D01*
X174452380Y-77904761D02*
X174309523Y-77952380D01*
X174071428Y-77952380D01*
X173976190Y-77904761D01*
X173928571Y-77857142D01*
X173880952Y-77761904D01*
X173880952Y-77666666D01*
X173928571Y-77571428D01*
X173976190Y-77523809D01*
X174071428Y-77476190D01*
X174261904Y-77428571D01*
X174357142Y-77380952D01*
X174404761Y-77333333D01*
X174452380Y-77238095D01*
X174452380Y-77142857D01*
X174404761Y-77047619D01*
X174357142Y-77000000D01*
X174261904Y-76952380D01*
X174023809Y-76952380D01*
X173880952Y-77000000D01*
G04 #@! TO.C,JP1*
X137483333Y-78452380D02*
X137483333Y-79166666D01*
X137530952Y-79309523D01*
X137626190Y-79404761D01*
X137769047Y-79452380D01*
X137864285Y-79452380D01*
X137007142Y-79452380D02*
X137007142Y-78452380D01*
X136626190Y-78452380D01*
X136530952Y-78500000D01*
X136483333Y-78547619D01*
X136435714Y-78642857D01*
X136435714Y-78785714D01*
X136483333Y-78880952D01*
X136530952Y-78928571D01*
X136626190Y-78976190D01*
X137007142Y-78976190D01*
X135483333Y-79452380D02*
X136054761Y-79452380D01*
X135769047Y-79452380D02*
X135769047Y-78452380D01*
X135864285Y-78595238D01*
X135959523Y-78690476D01*
X136054761Y-78738095D01*
G04 #@! TO.C,JP2*
X157983333Y-78452380D02*
X157983333Y-79166666D01*
X158030952Y-79309523D01*
X158126190Y-79404761D01*
X158269047Y-79452380D01*
X158364285Y-79452380D01*
X157507142Y-79452380D02*
X157507142Y-78452380D01*
X157126190Y-78452380D01*
X157030952Y-78500000D01*
X156983333Y-78547619D01*
X156935714Y-78642857D01*
X156935714Y-78785714D01*
X156983333Y-78880952D01*
X157030952Y-78928571D01*
X157126190Y-78976190D01*
X157507142Y-78976190D01*
X156554761Y-78547619D02*
X156507142Y-78500000D01*
X156411904Y-78452380D01*
X156173809Y-78452380D01*
X156078571Y-78500000D01*
X156030952Y-78547619D01*
X155983333Y-78642857D01*
X155983333Y-78738095D01*
X156030952Y-78880952D01*
X156602380Y-79452380D01*
X155983333Y-79452380D01*
G04 #@! TO.C,JP3*
X177583333Y-78452380D02*
X177583333Y-79166666D01*
X177630952Y-79309523D01*
X177726190Y-79404761D01*
X177869047Y-79452380D01*
X177964285Y-79452380D01*
X177107142Y-79452380D02*
X177107142Y-78452380D01*
X176726190Y-78452380D01*
X176630952Y-78500000D01*
X176583333Y-78547619D01*
X176535714Y-78642857D01*
X176535714Y-78785714D01*
X176583333Y-78880952D01*
X176630952Y-78928571D01*
X176726190Y-78976190D01*
X177107142Y-78976190D01*
X176202380Y-78452380D02*
X175583333Y-78452380D01*
X175916666Y-78833333D01*
X175773809Y-78833333D01*
X175678571Y-78880952D01*
X175630952Y-78928571D01*
X175583333Y-79023809D01*
X175583333Y-79261904D01*
X175630952Y-79357142D01*
X175678571Y-79404761D01*
X175773809Y-79452380D01*
X176059523Y-79452380D01*
X176154761Y-79404761D01*
X176202380Y-79357142D01*
D12*
G04 #@! TO.C,JP1*
X135250000Y-80700000D02*
X135250000Y-81300000D01*
X138050000Y-81300000D02*
X138050000Y-80700000D01*
X137350000Y-80000000D02*
X135950000Y-80000000D01*
X135950000Y-82000000D02*
X137350000Y-82000000D01*
X135950000Y-80000000D02*
G75*
G03*
X135250000Y-80700000I-1J-699999D01*
G01*
X138050000Y-80700000D02*
G75*
G03*
X137350000Y-80000000I-699999J1D01*
G01*
X135250000Y-81300000D02*
G75*
G03*
X135950000Y-82000000I699999J-1D01*
G01*
X137350000Y-82000000D02*
G75*
G03*
X138050000Y-81300000I1J699999D01*
G01*
G04 #@! TO.C,JP2*
X157850000Y-80000000D02*
X156450000Y-80000000D01*
X158550000Y-81300000D02*
X158550000Y-80700000D01*
X156450000Y-82000000D02*
X157850000Y-82000000D01*
X155750000Y-80700000D02*
X155750000Y-81300000D01*
X155750000Y-81300000D02*
G75*
G03*
X156450000Y-82000000I699999J-1D01*
G01*
X157850000Y-82000000D02*
G75*
G03*
X158550000Y-81300000I1J699999D01*
G01*
X158550000Y-80700000D02*
G75*
G03*
X157850000Y-80000000I-699999J1D01*
G01*
X156450000Y-80000000D02*
G75*
G03*
X155750000Y-80700000I-1J-699999D01*
G01*
G04 #@! TO.C,JP3*
X177900000Y-81300000D02*
X177900000Y-80700000D01*
X175800000Y-82000000D02*
X177200000Y-82000000D01*
X177200000Y-80000000D02*
X175800000Y-80000000D01*
X175100000Y-80700000D02*
X175100000Y-81300000D01*
X177200000Y-82000000D02*
G75*
G03*
X177900000Y-81300000I1J699999D01*
G01*
X175800000Y-80000000D02*
G75*
G03*
X175100000Y-80700000I-1J-699999D01*
G01*
X177900000Y-80700000D02*
G75*
G03*
X177200000Y-80000000I-699999J1D01*
G01*
X175100000Y-81300000D02*
G75*
G03*
X175800000Y-82000000I699999J-1D01*
G01*
G04 #@! TD*
M02*
