M48
; DRILL file {KiCad (6.0.0)} date Sat Oct 22 07:28:51 2022
; FORMAT={-:-/ absolute / inch / decimal}
; #@! TF.CreationDate,2022-10-22T07:28:51+03:00
; #@! TF.GenerationSoftware,Kicad,Pcbnew,(6.0.0)
; #@! TF.FileFunction,Plated,1,2,PTH
FMAT,2
INCH
; #@! TA.AperFunction,Plated,PTH,ViaDrill
T1C0.0118
; #@! TA.AperFunction,Plated,PTH,ComponentDrill
T2C0.0394
%
G90
G05
T1
X4.5472Y-3.5925
X4.5472Y-3.6319
X4.5472Y-3.6713
X4.5472Y-3.7598
X4.5472Y-3.7992
X4.5472Y-3.8386
X4.5472Y-3.9961
X4.5472Y-4.0354
X4.5472Y-4.0748
X4.5866Y-3.5925
X4.5866Y-3.6319
X4.5866Y-3.6713
X4.5866Y-3.7598
X4.5866Y-3.7992
X4.5866Y-3.8386
X4.5866Y-3.9961
X4.5866Y-4.0354
X4.5866Y-4.0748
X4.6063Y-3.4055
X4.6063Y-3.4449
X4.6063Y-3.4843
X4.626Y-3.5925
X4.626Y-3.6319
X4.626Y-3.6713
X4.626Y-3.7598
X4.626Y-3.7992
X4.626Y-3.8386
X4.626Y-3.9961
X4.626Y-4.0354
X4.626Y-4.0748
X4.6457Y-3.4055
X4.6457Y-3.4449
X4.6457Y-3.4843
X4.685Y-3.4055
X4.685Y-3.4449
X4.685Y-3.4843
X5.2559Y-3.4547
X5.2559Y-3.5925
X5.2854Y-3.4547
X5.2854Y-3.5925
X5.315Y-3.4547
X5.315Y-3.5925
X5.3445Y-3.4252
X5.3445Y-3.4547
X5.3445Y-3.5925
X5.3543Y-3.7205
X5.374Y-3.4252
X5.374Y-3.4547
X5.374Y-3.5925
X5.4035Y-3.4252
X5.4035Y-3.4547
X5.4035Y-3.5925
X5.4331Y-3.4547
X5.4331Y-3.5925
X5.4626Y-3.4547
X5.4626Y-3.5925
X5.4921Y-3.4547
X5.4921Y-3.5925
X5.689Y-4.0059
X5.689Y-4.0354
X5.689Y-4.065
X5.7283Y-4.0059
X5.7283Y-4.0354
X5.7283Y-4.065
X5.7677Y-4.0059
X5.7677Y-4.0354
X5.7677Y-4.065
X5.8071Y-4.0059
X5.8071Y-4.0354
X5.8071Y-4.065
X5.9843Y-3.7205
X6.0531Y-3.4547
X6.0531Y-3.5925
X6.0827Y-3.4547
X6.0827Y-3.5925
X6.1122Y-3.4547
X6.1122Y-3.5925
X6.1417Y-3.4252
X6.1417Y-3.4547
X6.1417Y-3.5925
X6.1713Y-3.4252
X6.1713Y-3.4547
X6.1713Y-3.5925
X6.2008Y-3.4252
X6.2008Y-3.4547
X6.2008Y-3.5925
X6.2303Y-3.4547
X6.2303Y-3.5925
X6.2598Y-3.4547
X6.2598Y-3.5925
X6.2894Y-3.4547
X6.2894Y-3.5925
X6.3287Y-4.0059
X6.3287Y-4.0354
X6.3287Y-4.065
X6.3681Y-4.0059
X6.3681Y-4.0354
X6.3681Y-4.065
X6.4075Y-4.0059
X6.4075Y-4.0354
X6.4075Y-4.065
X6.4469Y-4.0059
X6.4469Y-4.0354
X6.4469Y-4.065
X6.6142Y-3.7205
X6.8406Y-3.4547
X6.8406Y-3.5925
X6.8701Y-3.4547
X6.8701Y-3.5925
X6.8996Y-3.4547
X6.8996Y-3.5925
X6.9291Y-3.4252
X6.9291Y-3.4547
X6.9291Y-3.5925
X6.9488Y-4.0059
X6.9488Y-4.0354
X6.9488Y-4.065
X6.9587Y-3.4252
X6.9587Y-3.4547
X6.9587Y-3.5925
X6.9882Y-3.4252
X6.9882Y-3.4547
X6.9882Y-3.5925
X6.9882Y-4.0059
X6.9882Y-4.0354
X6.9882Y-4.065
X7.0177Y-3.4547
X7.0177Y-3.5925
X7.0276Y-4.0059
X7.0276Y-4.0354
X7.0276Y-4.065
X7.0472Y-3.4547
X7.0472Y-3.5925
X7.0669Y-4.0059
X7.0669Y-4.0354
X7.0669Y-4.065
X7.0768Y-3.4547
X7.0768Y-3.5925
T2
X5.274Y-3.3238
X5.374Y-3.3238
X5.474Y-3.3238
X6.0811Y-3.3238
X6.1811Y-3.3238
X6.2811Y-3.3238
X6.8488Y-3.3268
X6.9488Y-3.3268
X7.0488Y-3.3268
T0
M30
