G04 #@! TF.GenerationSoftware,KiCad,Pcbnew,(6.0.0)*
G04 #@! TF.CreationDate,2022-10-22T07:28:46+03:00*
G04 #@! TF.ProjectId,Voltlog Microscope PDU,566f6c74-6c6f-4672-904d-6963726f7363,rev?*
G04 #@! TF.SameCoordinates,Original*
G04 #@! TF.FileFunction,Copper,L2,Bot*
G04 #@! TF.FilePolarity,Positive*
%FSLAX46Y46*%
G04 Gerber Fmt 4.6, Leading zero omitted, Abs format (unit mm)*
G04 Created by KiCad (PCBNEW (6.0.0)) date 2022-10-22 07:28:46*
%MOMM*%
%LPD*%
G01*
G04 APERTURE LIST*
G04 Aperture macros list*
%AMFreePoly0*
4,1,22,0.500000,-0.750000,0.000000,-0.750000,0.000000,-0.745033,-0.079941,-0.743568,-0.215256,-0.701293,-0.333266,-0.622738,-0.424486,-0.514219,-0.481581,-0.384460,-0.499164,-0.250000,-0.500000,-0.250000,-0.500000,0.250000,-0.499164,0.250000,-0.499963,0.256109,-0.478152,0.396186,-0.417904,0.524511,-0.324060,0.630769,-0.204165,0.706417,-0.067858,0.745374,0.000000,0.744959,0.000000,0.750000,
0.500000,0.750000,0.500000,-0.750000,0.500000,-0.750000,$1*%
%AMFreePoly1*
4,1,20,0.000000,0.744959,0.073905,0.744508,0.209726,0.703889,0.328688,0.626782,0.421226,0.519385,0.479903,0.390333,0.500000,0.250000,0.500000,-0.250000,0.499851,-0.262216,0.476331,-0.402017,0.414519,-0.529596,0.319384,-0.634700,0.198574,-0.708877,0.061801,-0.746166,0.000000,-0.745033,0.000000,-0.750000,-0.500000,-0.750000,-0.500000,0.750000,0.000000,0.750000,0.000000,0.744959,
0.000000,0.744959,$1*%
G04 Aperture macros list end*
G04 #@! TA.AperFunction,ComponentPad*
%ADD10R,1.500000X2.300000*%
G04 #@! TD*
G04 #@! TA.AperFunction,ComponentPad*
%ADD11O,1.500000X2.300000*%
G04 #@! TD*
G04 #@! TA.AperFunction,SMDPad,CuDef*
%ADD12FreePoly0,0.000000*%
G04 #@! TD*
G04 #@! TA.AperFunction,SMDPad,CuDef*
%ADD13FreePoly1,0.000000*%
G04 #@! TD*
G04 #@! TA.AperFunction,ViaPad*
%ADD14C,0.600000*%
G04 #@! TD*
G04 APERTURE END LIST*
D10*
G04 #@! TO.P,U2,1,IN*
G04 #@! TO.N,Net-(C4-Pad1)*
X154460000Y-84425000D03*
D11*
G04 #@! TO.P,U2,2,GND*
G04 #@! TO.N,GND*
X157000000Y-84425000D03*
G04 #@! TO.P,U2,3,OUT*
G04 #@! TO.N,Net-(C7-Pad1)*
X159540000Y-84425000D03*
G04 #@! TD*
D10*
G04 #@! TO.P,U1,1,IN*
G04 #@! TO.N,Net-(C3-Pad1)*
X133960000Y-84425000D03*
D11*
G04 #@! TO.P,U1,2,GND*
G04 #@! TO.N,GND*
X136500000Y-84425000D03*
G04 #@! TO.P,U1,3,OUT*
G04 #@! TO.N,Net-(C6-Pad1)*
X139040000Y-84425000D03*
G04 #@! TD*
D10*
G04 #@! TO.P,U3,1,IN*
G04 #@! TO.N,Net-(C5-Pad1)*
X173960000Y-84500000D03*
D11*
G04 #@! TO.P,U3,2,GND*
G04 #@! TO.N,GND*
X176500000Y-84500000D03*
G04 #@! TO.P,U3,3,OUT*
G04 #@! TO.N,Net-(C8-Pad1)*
X179040000Y-84500000D03*
G04 #@! TD*
D12*
G04 #@! TO.P,JP1,1,A*
G04 #@! TO.N,Net-(C3-Pad1)*
X136000000Y-81000000D03*
D13*
G04 #@! TO.P,JP1,2,B*
G04 #@! TO.N,Net-(C6-Pad1)*
X137300000Y-81000000D03*
G04 #@! TD*
D12*
G04 #@! TO.P,JP2,1,A*
G04 #@! TO.N,Net-(C4-Pad1)*
X156500000Y-81000000D03*
D13*
G04 #@! TO.P,JP2,2,B*
G04 #@! TO.N,Net-(C7-Pad1)*
X157800000Y-81000000D03*
G04 #@! TD*
D12*
G04 #@! TO.P,JP3,1,A*
G04 #@! TO.N,Net-(C5-Pad1)*
X175850000Y-81000000D03*
D13*
G04 #@! TO.P,JP3,2,B*
G04 #@! TO.N,Net-(C8-Pad1)*
X177150000Y-81000000D03*
G04 #@! TD*
D14*
G04 #@! TO.N,GND*
X178500000Y-102500000D03*
X115500000Y-97500000D03*
X177500000Y-103250000D03*
X145500000Y-103250000D03*
X119000000Y-86500000D03*
X178250000Y-87750000D03*
X118000000Y-88500000D03*
X161750000Y-101750000D03*
X135000000Y-87750000D03*
X173750000Y-87750000D03*
X134250000Y-87750000D03*
X156750000Y-87750000D03*
X159750000Y-91250000D03*
X117500000Y-102500000D03*
X176750000Y-87750000D03*
X159750000Y-87750000D03*
X161750000Y-103250000D03*
X117500000Y-97500000D03*
X157500000Y-87000000D03*
X147500000Y-101750000D03*
X176500000Y-102500000D03*
X134250000Y-91250000D03*
X116500000Y-97500000D03*
X177500000Y-87750000D03*
X176500000Y-101750000D03*
X146500000Y-102500000D03*
X176000000Y-87000000D03*
X119000000Y-87500000D03*
X173750000Y-91250000D03*
X137250000Y-91250000D03*
X153750000Y-87750000D03*
X144500000Y-101750000D03*
X177500000Y-101750000D03*
X155250000Y-87750000D03*
X115500000Y-96500000D03*
X139500000Y-87750000D03*
X135750000Y-87000000D03*
X137250000Y-87750000D03*
X116500000Y-96500000D03*
X117500000Y-91250000D03*
X176500000Y-103250000D03*
X145500000Y-101750000D03*
X176750000Y-91250000D03*
X115500000Y-95500000D03*
X155250000Y-91250000D03*
X138750000Y-87750000D03*
X161750000Y-102500000D03*
X156750000Y-87000000D03*
X179500000Y-101750000D03*
X162750000Y-101750000D03*
X137250000Y-87000000D03*
X135000000Y-91250000D03*
X115500000Y-92250000D03*
X116500000Y-91250000D03*
X144500000Y-102500000D03*
X116500000Y-101500000D03*
X178250000Y-91250000D03*
X158250000Y-91250000D03*
X157500000Y-87750000D03*
X156000000Y-87000000D03*
X153750000Y-91250000D03*
X156000000Y-91250000D03*
X179750000Y-87750000D03*
X147500000Y-102500000D03*
X133500000Y-91250000D03*
X177500000Y-87000000D03*
X118000000Y-86500000D03*
X179000000Y-91250000D03*
X147500000Y-103250000D03*
X133500000Y-87750000D03*
X139500000Y-91250000D03*
X156750000Y-91250000D03*
X174500000Y-91250000D03*
X115500000Y-91250000D03*
X146500000Y-101750000D03*
X117500000Y-103500000D03*
X175250000Y-87750000D03*
X115500000Y-102500000D03*
X178500000Y-103250000D03*
X175250000Y-91250000D03*
X117500000Y-101500000D03*
X157500000Y-91250000D03*
X136000000Y-94500000D03*
X163750000Y-102500000D03*
X135750000Y-91250000D03*
X117000000Y-87500000D03*
X159000000Y-87750000D03*
X176000000Y-87750000D03*
X158250000Y-87750000D03*
X179500000Y-103250000D03*
X144500000Y-103250000D03*
X177500000Y-91250000D03*
X145500000Y-102500000D03*
X136500000Y-91250000D03*
X162750000Y-103250000D03*
X176000000Y-91250000D03*
X159000000Y-91250000D03*
X116500000Y-103500000D03*
X115500000Y-93250000D03*
X160750000Y-103250000D03*
X117500000Y-92250000D03*
X116500000Y-92250000D03*
X152000000Y-94500000D03*
X176750000Y-87000000D03*
X138000000Y-91250000D03*
X119000000Y-88500000D03*
X156000000Y-87750000D03*
X117000000Y-88500000D03*
X117500000Y-96500000D03*
X178500000Y-101750000D03*
X163750000Y-101750000D03*
X177500000Y-102500000D03*
X160750000Y-102500000D03*
X116500000Y-95500000D03*
X115500000Y-101500000D03*
X168000000Y-94500000D03*
X179750000Y-91250000D03*
X136500000Y-87000000D03*
X162750000Y-102500000D03*
X117500000Y-95500000D03*
X138000000Y-87750000D03*
X135750000Y-87750000D03*
X136500000Y-87750000D03*
X154500000Y-87750000D03*
X174500000Y-87750000D03*
X163750000Y-103250000D03*
X115500000Y-103500000D03*
X116500000Y-93250000D03*
X146500000Y-103250000D03*
X118000000Y-87500000D03*
X117000000Y-86500000D03*
X179500000Y-102500000D03*
X117500000Y-93250000D03*
X160750000Y-101750000D03*
X138750000Y-91250000D03*
X154500000Y-91250000D03*
X179000000Y-87750000D03*
X116500000Y-102500000D03*
G04 #@! TD*
G04 #@! TA.AperFunction,Conductor*
G04 #@! TO.N,GND*
G36*
X142204661Y-54258926D02*
G01*
X186445186Y-54267760D01*
X186469738Y-54270180D01*
X186470060Y-54270244D01*
X186470062Y-54270244D01*
X186482233Y-54272665D01*
X186494404Y-54270244D01*
X186506815Y-54270244D01*
X186506815Y-54270609D01*
X186517351Y-54269891D01*
X186657358Y-54278360D01*
X186745834Y-54283712D01*
X186760938Y-54285546D01*
X187013195Y-54331774D01*
X187027969Y-54335415D01*
X187272825Y-54411715D01*
X187287043Y-54417107D01*
X187520909Y-54522363D01*
X187534379Y-54529432D01*
X187753857Y-54662111D01*
X187766379Y-54670754D01*
X187968265Y-54828922D01*
X187979653Y-54839012D01*
X188160988Y-55020347D01*
X188171078Y-55031735D01*
X188329246Y-55233621D01*
X188337889Y-55246143D01*
X188470568Y-55465621D01*
X188477637Y-55479091D01*
X188581298Y-55709413D01*
X188582891Y-55712953D01*
X188588285Y-55727175D01*
X188610706Y-55799127D01*
X188664585Y-55972032D01*
X188668226Y-55986805D01*
X188714454Y-56239062D01*
X188716288Y-56254166D01*
X188721640Y-56342642D01*
X188730017Y-56481118D01*
X188730109Y-56482647D01*
X188729391Y-56493185D01*
X188729756Y-56493185D01*
X188729756Y-56505596D01*
X188727335Y-56517767D01*
X188729756Y-56529938D01*
X188729812Y-56530220D01*
X188732233Y-56554801D01*
X188732233Y-105445199D01*
X188729812Y-105469780D01*
X188727335Y-105482233D01*
X188729756Y-105494404D01*
X188729756Y-105506815D01*
X188729391Y-105506815D01*
X188730109Y-105517351D01*
X188729034Y-105535120D01*
X188716288Y-105745834D01*
X188714454Y-105760938D01*
X188668226Y-106013195D01*
X188664585Y-106027968D01*
X188593185Y-106257103D01*
X188588287Y-106272820D01*
X188582893Y-106287043D01*
X188527689Y-106409699D01*
X188477639Y-106520906D01*
X188470568Y-106534379D01*
X188337889Y-106753857D01*
X188329246Y-106766379D01*
X188171078Y-106968265D01*
X188160988Y-106979653D01*
X187979653Y-107160988D01*
X187968265Y-107171078D01*
X187766379Y-107329246D01*
X187753857Y-107337889D01*
X187534379Y-107470568D01*
X187520909Y-107477637D01*
X187287043Y-107582893D01*
X187272825Y-107588285D01*
X187120802Y-107635657D01*
X187027968Y-107664585D01*
X187013195Y-107668226D01*
X186760938Y-107714454D01*
X186745834Y-107716288D01*
X186657358Y-107721640D01*
X186517351Y-107730109D01*
X186506815Y-107729391D01*
X186506815Y-107729756D01*
X186494404Y-107729756D01*
X186482233Y-107727335D01*
X186470062Y-107729756D01*
X186470060Y-107729756D01*
X186469738Y-107729820D01*
X186445186Y-107732240D01*
X142204661Y-107741074D01*
X97537016Y-107749993D01*
X97512415Y-107747572D01*
X97500000Y-107745102D01*
X97487829Y-107747523D01*
X97475418Y-107747523D01*
X97475418Y-107747158D01*
X97464882Y-107747876D01*
X97324875Y-107739407D01*
X97236399Y-107734055D01*
X97221295Y-107732221D01*
X96969038Y-107685993D01*
X96954265Y-107682352D01*
X96931430Y-107675236D01*
X96709408Y-107606052D01*
X96695190Y-107600660D01*
X96461324Y-107495404D01*
X96447854Y-107488335D01*
X96228376Y-107355656D01*
X96215854Y-107347013D01*
X96013968Y-107188845D01*
X96002580Y-107178755D01*
X95821245Y-106997420D01*
X95811155Y-106986032D01*
X95652987Y-106784146D01*
X95644344Y-106771624D01*
X95511665Y-106552146D01*
X95504594Y-106538673D01*
X95399340Y-106304810D01*
X95393946Y-106290587D01*
X95390677Y-106280094D01*
X95317648Y-106045735D01*
X95314007Y-106030962D01*
X95267779Y-105778705D01*
X95265945Y-105763601D01*
X95252124Y-105535120D01*
X95252842Y-105524582D01*
X95252477Y-105524582D01*
X95252477Y-105512171D01*
X95254898Y-105500000D01*
X95252421Y-105487547D01*
X95250000Y-105462966D01*
X95250000Y-105042095D01*
X96145028Y-105042095D01*
X96170534Y-105309431D01*
X96171619Y-105313865D01*
X96171620Y-105313871D01*
X96217438Y-105501115D01*
X96234364Y-105570285D01*
X96236076Y-105574511D01*
X96236077Y-105574515D01*
X96333469Y-105814963D01*
X96335182Y-105819192D01*
X96470875Y-106050938D01*
X96520425Y-106112897D01*
X96607390Y-106221641D01*
X96638601Y-106260669D01*
X96834846Y-106443991D01*
X96927039Y-106507948D01*
X97051746Y-106594461D01*
X97051751Y-106594464D01*
X97055499Y-106597064D01*
X97059584Y-106599096D01*
X97059587Y-106599098D01*
X97175718Y-106656872D01*
X97295938Y-106716680D01*
X97300272Y-106718101D01*
X97300275Y-106718102D01*
X97546793Y-106798915D01*
X97546798Y-106798916D01*
X97551126Y-106800335D01*
X97555617Y-106801115D01*
X97555618Y-106801115D01*
X97811936Y-106845620D01*
X97811944Y-106845621D01*
X97815717Y-106846276D01*
X97819554Y-106846467D01*
X97898996Y-106850422D01*
X97899004Y-106850422D01*
X97900567Y-106850500D01*
X98068223Y-106850500D01*
X98070491Y-106850335D01*
X98070503Y-106850335D01*
X98200823Y-106840879D01*
X98267846Y-106836016D01*
X98272301Y-106835032D01*
X98272304Y-106835032D01*
X98525620Y-106779105D01*
X98525624Y-106779104D01*
X98530080Y-106778120D01*
X98697617Y-106714646D01*
X98776941Y-106684593D01*
X98776944Y-106684592D01*
X98781211Y-106682975D01*
X99015976Y-106552574D01*
X99158254Y-106443991D01*
X99225833Y-106392417D01*
X99225837Y-106392413D01*
X99229458Y-106389650D01*
X99293305Y-106324338D01*
X99342316Y-106274201D01*
X99417185Y-106197614D01*
X99527735Y-106045735D01*
X99572538Y-105984183D01*
X99572540Y-105984180D01*
X99575225Y-105980491D01*
X99675121Y-105790620D01*
X99698140Y-105746868D01*
X99698143Y-105746862D01*
X99700265Y-105742828D01*
X99730895Y-105656093D01*
X99788165Y-105493916D01*
X99788165Y-105493915D01*
X99789688Y-105489603D01*
X99797666Y-105449126D01*
X109745541Y-105449126D01*
X109775935Y-105650097D01*
X109846119Y-105840852D01*
X109849479Y-105846272D01*
X109849480Y-105846273D01*
X109949863Y-106008176D01*
X109949866Y-106008180D01*
X109953226Y-106013599D01*
X110092881Y-106161280D01*
X110259379Y-106277863D01*
X110445919Y-106358586D01*
X110491947Y-106368202D01*
X110640144Y-106399162D01*
X110640149Y-106399163D01*
X110644880Y-106400151D01*
X110649762Y-106400407D01*
X110649871Y-106400413D01*
X110649887Y-106400413D01*
X110651539Y-106400500D01*
X111300800Y-106400500D01*
X111348793Y-106395625D01*
X111445868Y-106385765D01*
X111445870Y-106385765D01*
X111452216Y-106385120D01*
X111646172Y-106324338D01*
X111823944Y-106225797D01*
X111978271Y-106093523D01*
X112008537Y-106054505D01*
X112065947Y-105980491D01*
X112102848Y-105932919D01*
X112192587Y-105750545D01*
X112218752Y-105650097D01*
X112242212Y-105560034D01*
X112242212Y-105560031D01*
X112243822Y-105553852D01*
X112249310Y-105449126D01*
X139745541Y-105449126D01*
X139775935Y-105650097D01*
X139846119Y-105840852D01*
X139849479Y-105846272D01*
X139849480Y-105846273D01*
X139949863Y-106008176D01*
X139949866Y-106008180D01*
X139953226Y-106013599D01*
X140092881Y-106161280D01*
X140259379Y-106277863D01*
X140445919Y-106358586D01*
X140491947Y-106368202D01*
X140640144Y-106399162D01*
X140640149Y-106399163D01*
X140644880Y-106400151D01*
X140649762Y-106400407D01*
X140649871Y-106400413D01*
X140649887Y-106400413D01*
X140651539Y-106400500D01*
X141300800Y-106400500D01*
X141348793Y-106395625D01*
X141445868Y-106385765D01*
X141445870Y-106385765D01*
X141452216Y-106385120D01*
X141646172Y-106324338D01*
X141823944Y-106225797D01*
X141978271Y-106093523D01*
X142008537Y-106054505D01*
X142065947Y-105980491D01*
X142102848Y-105932919D01*
X142192587Y-105750545D01*
X142218752Y-105650097D01*
X142242212Y-105560034D01*
X142242212Y-105560031D01*
X142243822Y-105553852D01*
X142249310Y-105449126D01*
X155745541Y-105449126D01*
X155775935Y-105650097D01*
X155846119Y-105840852D01*
X155849479Y-105846272D01*
X155849480Y-105846273D01*
X155949863Y-106008176D01*
X155949866Y-106008180D01*
X155953226Y-106013599D01*
X156092881Y-106161280D01*
X156259379Y-106277863D01*
X156445919Y-106358586D01*
X156491947Y-106368202D01*
X156640144Y-106399162D01*
X156640149Y-106399163D01*
X156644880Y-106400151D01*
X156649762Y-106400407D01*
X156649871Y-106400413D01*
X156649887Y-106400413D01*
X156651539Y-106400500D01*
X157300800Y-106400500D01*
X157348793Y-106395625D01*
X157445868Y-106385765D01*
X157445870Y-106385765D01*
X157452216Y-106385120D01*
X157646172Y-106324338D01*
X157823944Y-106225797D01*
X157978271Y-106093523D01*
X158008537Y-106054505D01*
X158065947Y-105980491D01*
X158102848Y-105932919D01*
X158192587Y-105750545D01*
X158218752Y-105650097D01*
X158242212Y-105560034D01*
X158242212Y-105560031D01*
X158243822Y-105553852D01*
X158249310Y-105449126D01*
X171745541Y-105449126D01*
X171775935Y-105650097D01*
X171846119Y-105840852D01*
X171849479Y-105846272D01*
X171849480Y-105846273D01*
X171949863Y-106008176D01*
X171949866Y-106008180D01*
X171953226Y-106013599D01*
X172092881Y-106161280D01*
X172259379Y-106277863D01*
X172445919Y-106358586D01*
X172491947Y-106368202D01*
X172640144Y-106399162D01*
X172640149Y-106399163D01*
X172644880Y-106400151D01*
X172649762Y-106400407D01*
X172649871Y-106400413D01*
X172649887Y-106400413D01*
X172651539Y-106400500D01*
X173300800Y-106400500D01*
X173348793Y-106395625D01*
X173445868Y-106385765D01*
X173445870Y-106385765D01*
X173452216Y-106385120D01*
X173646172Y-106324338D01*
X173823944Y-106225797D01*
X173978271Y-106093523D01*
X174008537Y-106054505D01*
X174065947Y-105980491D01*
X174102848Y-105932919D01*
X174192587Y-105750545D01*
X174218752Y-105650097D01*
X174242212Y-105560034D01*
X174242212Y-105560031D01*
X174243822Y-105553852D01*
X174254459Y-105350874D01*
X174224065Y-105149903D01*
X174184399Y-105042095D01*
X184145028Y-105042095D01*
X184170534Y-105309431D01*
X184171619Y-105313865D01*
X184171620Y-105313871D01*
X184217438Y-105501115D01*
X184234364Y-105570285D01*
X184236076Y-105574511D01*
X184236077Y-105574515D01*
X184333469Y-105814963D01*
X184335182Y-105819192D01*
X184470875Y-106050938D01*
X184520425Y-106112897D01*
X184607390Y-106221641D01*
X184638601Y-106260669D01*
X184834846Y-106443991D01*
X184927039Y-106507948D01*
X185051746Y-106594461D01*
X185051751Y-106594464D01*
X185055499Y-106597064D01*
X185059584Y-106599096D01*
X185059587Y-106599098D01*
X185175718Y-106656872D01*
X185295938Y-106716680D01*
X185300272Y-106718101D01*
X185300275Y-106718102D01*
X185546793Y-106798915D01*
X185546798Y-106798916D01*
X185551126Y-106800335D01*
X185555617Y-106801115D01*
X185555618Y-106801115D01*
X185811936Y-106845620D01*
X185811944Y-106845621D01*
X185815717Y-106846276D01*
X185819554Y-106846467D01*
X185898996Y-106850422D01*
X185899004Y-106850422D01*
X185900567Y-106850500D01*
X186068223Y-106850500D01*
X186070491Y-106850335D01*
X186070503Y-106850335D01*
X186200823Y-106840879D01*
X186267846Y-106836016D01*
X186272301Y-106835032D01*
X186272304Y-106835032D01*
X186525620Y-106779105D01*
X186525624Y-106779104D01*
X186530080Y-106778120D01*
X186697617Y-106714646D01*
X186776941Y-106684593D01*
X186776944Y-106684592D01*
X186781211Y-106682975D01*
X187015976Y-106552574D01*
X187158254Y-106443991D01*
X187225833Y-106392417D01*
X187225837Y-106392413D01*
X187229458Y-106389650D01*
X187293305Y-106324338D01*
X187342316Y-106274201D01*
X187417185Y-106197614D01*
X187527735Y-106045735D01*
X187572538Y-105984183D01*
X187572540Y-105984180D01*
X187575225Y-105980491D01*
X187675121Y-105790620D01*
X187698140Y-105746868D01*
X187698143Y-105746862D01*
X187700265Y-105742828D01*
X187730895Y-105656093D01*
X187788165Y-105493916D01*
X187788165Y-105493915D01*
X187789688Y-105489603D01*
X187837673Y-105246148D01*
X187840739Y-105230594D01*
X187840740Y-105230588D01*
X187841620Y-105226122D01*
X187850415Y-105049455D01*
X187854745Y-104962474D01*
X187854745Y-104962468D01*
X187854972Y-104957905D01*
X187829466Y-104690569D01*
X187817915Y-104643361D01*
X187766721Y-104434149D01*
X187765636Y-104429715D01*
X187760401Y-104416789D01*
X187666531Y-104185037D01*
X187666531Y-104185036D01*
X187664818Y-104180808D01*
X187529125Y-103949062D01*
X187418211Y-103810371D01*
X187364251Y-103742897D01*
X187364250Y-103742895D01*
X187361399Y-103739331D01*
X187165154Y-103556009D01*
X187005436Y-103445208D01*
X186948254Y-103405539D01*
X186948249Y-103405536D01*
X186944501Y-103402936D01*
X186940416Y-103400904D01*
X186940413Y-103400902D01*
X186768560Y-103315407D01*
X186704062Y-103283320D01*
X186699728Y-103281899D01*
X186699725Y-103281898D01*
X186453207Y-103201085D01*
X186453202Y-103201084D01*
X186448874Y-103199665D01*
X186444382Y-103198885D01*
X186188064Y-103154380D01*
X186188056Y-103154379D01*
X186184283Y-103153724D01*
X186175622Y-103153293D01*
X186101004Y-103149578D01*
X186100996Y-103149578D01*
X186099433Y-103149500D01*
X185931777Y-103149500D01*
X185929509Y-103149665D01*
X185929497Y-103149665D01*
X185799177Y-103159121D01*
X185732154Y-103163984D01*
X185727699Y-103164968D01*
X185727696Y-103164968D01*
X185474380Y-103220895D01*
X185474376Y-103220896D01*
X185469920Y-103221880D01*
X185344355Y-103269452D01*
X185223059Y-103315407D01*
X185223056Y-103315408D01*
X185218789Y-103317025D01*
X184984024Y-103447426D01*
X184980392Y-103450198D01*
X184774167Y-103607583D01*
X184774163Y-103607587D01*
X184770542Y-103610350D01*
X184582815Y-103802386D01*
X184424775Y-104019509D01*
X184422651Y-104023547D01*
X184301860Y-104253132D01*
X184301857Y-104253138D01*
X184299735Y-104257172D01*
X184298215Y-104261477D01*
X184298213Y-104261481D01*
X184234672Y-104441414D01*
X184210312Y-104510397D01*
X184198346Y-104571108D01*
X184170672Y-104711516D01*
X184158380Y-104773878D01*
X184158153Y-104778431D01*
X184158153Y-104778434D01*
X184148992Y-104962474D01*
X184145028Y-105042095D01*
X174184399Y-105042095D01*
X174153881Y-104959148D01*
X174150520Y-104953727D01*
X174050137Y-104791824D01*
X174050134Y-104791820D01*
X174046774Y-104786401D01*
X173956150Y-104690569D01*
X173911508Y-104643361D01*
X173911507Y-104643360D01*
X173907119Y-104638720D01*
X173740621Y-104522137D01*
X173554081Y-104441414D01*
X173477833Y-104425485D01*
X173359856Y-104400838D01*
X173359851Y-104400837D01*
X173355120Y-104399849D01*
X173350238Y-104399593D01*
X173350129Y-104399587D01*
X173350113Y-104399587D01*
X173348461Y-104399500D01*
X172699200Y-104399500D01*
X172651207Y-104404375D01*
X172554132Y-104414235D01*
X172554130Y-104414235D01*
X172547784Y-104414880D01*
X172353828Y-104475662D01*
X172176056Y-104574203D01*
X172021729Y-104706477D01*
X172017822Y-104711514D01*
X172017820Y-104711516D01*
X171963331Y-104781763D01*
X171897152Y-104867081D01*
X171807413Y-105049455D01*
X171805804Y-105055633D01*
X171805803Y-105055635D01*
X171760230Y-105230594D01*
X171756178Y-105246148D01*
X171745541Y-105449126D01*
X158249310Y-105449126D01*
X158254459Y-105350874D01*
X158224065Y-105149903D01*
X158153881Y-104959148D01*
X158150520Y-104953727D01*
X158050137Y-104791824D01*
X158050134Y-104791820D01*
X158046774Y-104786401D01*
X157956150Y-104690569D01*
X157911508Y-104643361D01*
X157911507Y-104643360D01*
X157907119Y-104638720D01*
X157740621Y-104522137D01*
X157554081Y-104441414D01*
X157477833Y-104425485D01*
X157359856Y-104400838D01*
X157359851Y-104400837D01*
X157355120Y-104399849D01*
X157350238Y-104399593D01*
X157350129Y-104399587D01*
X157350113Y-104399587D01*
X157348461Y-104399500D01*
X156699200Y-104399500D01*
X156651207Y-104404375D01*
X156554132Y-104414235D01*
X156554130Y-104414235D01*
X156547784Y-104414880D01*
X156353828Y-104475662D01*
X156176056Y-104574203D01*
X156021729Y-104706477D01*
X156017822Y-104711514D01*
X156017820Y-104711516D01*
X155963331Y-104781763D01*
X155897152Y-104867081D01*
X155807413Y-105049455D01*
X155805804Y-105055633D01*
X155805803Y-105055635D01*
X155760230Y-105230594D01*
X155756178Y-105246148D01*
X155745541Y-105449126D01*
X142249310Y-105449126D01*
X142254459Y-105350874D01*
X142224065Y-105149903D01*
X142153881Y-104959148D01*
X142150520Y-104953727D01*
X142050137Y-104791824D01*
X142050134Y-104791820D01*
X142046774Y-104786401D01*
X141956150Y-104690569D01*
X141911508Y-104643361D01*
X141911507Y-104643360D01*
X141907119Y-104638720D01*
X141740621Y-104522137D01*
X141554081Y-104441414D01*
X141477833Y-104425485D01*
X141359856Y-104400838D01*
X141359851Y-104400837D01*
X141355120Y-104399849D01*
X141350238Y-104399593D01*
X141350129Y-104399587D01*
X141350113Y-104399587D01*
X141348461Y-104399500D01*
X140699200Y-104399500D01*
X140651207Y-104404375D01*
X140554132Y-104414235D01*
X140554130Y-104414235D01*
X140547784Y-104414880D01*
X140353828Y-104475662D01*
X140176056Y-104574203D01*
X140021729Y-104706477D01*
X140017822Y-104711514D01*
X140017820Y-104711516D01*
X139963331Y-104781763D01*
X139897152Y-104867081D01*
X139807413Y-105049455D01*
X139805804Y-105055633D01*
X139805803Y-105055635D01*
X139760230Y-105230594D01*
X139756178Y-105246148D01*
X139745541Y-105449126D01*
X112249310Y-105449126D01*
X112254459Y-105350874D01*
X112224065Y-105149903D01*
X112153881Y-104959148D01*
X112150520Y-104953727D01*
X112050137Y-104791824D01*
X112050134Y-104791820D01*
X112046774Y-104786401D01*
X111956150Y-104690569D01*
X111911508Y-104643361D01*
X111911507Y-104643360D01*
X111907119Y-104638720D01*
X111740621Y-104522137D01*
X111554081Y-104441414D01*
X111477833Y-104425485D01*
X111359856Y-104400838D01*
X111359851Y-104400837D01*
X111355120Y-104399849D01*
X111350238Y-104399593D01*
X111350129Y-104399587D01*
X111350113Y-104399587D01*
X111348461Y-104399500D01*
X110699200Y-104399500D01*
X110651207Y-104404375D01*
X110554132Y-104414235D01*
X110554130Y-104414235D01*
X110547784Y-104414880D01*
X110353828Y-104475662D01*
X110176056Y-104574203D01*
X110021729Y-104706477D01*
X110017822Y-104711514D01*
X110017820Y-104711516D01*
X109963331Y-104781763D01*
X109897152Y-104867081D01*
X109807413Y-105049455D01*
X109805804Y-105055633D01*
X109805803Y-105055635D01*
X109760230Y-105230594D01*
X109756178Y-105246148D01*
X109745541Y-105449126D01*
X99797666Y-105449126D01*
X99837673Y-105246148D01*
X99840739Y-105230594D01*
X99840740Y-105230588D01*
X99841620Y-105226122D01*
X99850415Y-105049455D01*
X99854745Y-104962474D01*
X99854745Y-104962468D01*
X99854972Y-104957905D01*
X99829466Y-104690569D01*
X99817915Y-104643361D01*
X99766721Y-104434149D01*
X99765636Y-104429715D01*
X99760401Y-104416789D01*
X99666531Y-104185037D01*
X99666531Y-104185036D01*
X99664818Y-104180808D01*
X99529125Y-103949062D01*
X99418211Y-103810371D01*
X99364251Y-103742897D01*
X99364250Y-103742895D01*
X99361399Y-103739331D01*
X99165154Y-103556009D01*
X99005436Y-103445208D01*
X98948254Y-103405539D01*
X98948249Y-103405536D01*
X98944501Y-103402936D01*
X98940416Y-103400904D01*
X98940413Y-103400902D01*
X98768560Y-103315407D01*
X98704062Y-103283320D01*
X98699728Y-103281899D01*
X98699725Y-103281898D01*
X98453207Y-103201085D01*
X98453202Y-103201084D01*
X98448874Y-103199665D01*
X98444382Y-103198885D01*
X98188064Y-103154380D01*
X98188056Y-103154379D01*
X98184283Y-103153724D01*
X98175622Y-103153293D01*
X98101004Y-103149578D01*
X98100996Y-103149578D01*
X98099433Y-103149500D01*
X97931777Y-103149500D01*
X97929509Y-103149665D01*
X97929497Y-103149665D01*
X97799177Y-103159121D01*
X97732154Y-103163984D01*
X97727699Y-103164968D01*
X97727696Y-103164968D01*
X97474380Y-103220895D01*
X97474376Y-103220896D01*
X97469920Y-103221880D01*
X97344355Y-103269452D01*
X97223059Y-103315407D01*
X97223056Y-103315408D01*
X97218789Y-103317025D01*
X96984024Y-103447426D01*
X96980392Y-103450198D01*
X96774167Y-103607583D01*
X96774163Y-103607587D01*
X96770542Y-103610350D01*
X96582815Y-103802386D01*
X96424775Y-104019509D01*
X96422651Y-104023547D01*
X96301860Y-104253132D01*
X96301857Y-104253138D01*
X96299735Y-104257172D01*
X96298215Y-104261477D01*
X96298213Y-104261481D01*
X96234672Y-104441414D01*
X96210312Y-104510397D01*
X96198346Y-104571108D01*
X96170672Y-104711516D01*
X96158380Y-104773878D01*
X96158153Y-104778431D01*
X96158153Y-104778434D01*
X96148992Y-104962474D01*
X96145028Y-105042095D01*
X95250000Y-105042095D01*
X95250000Y-101039438D01*
X109745066Y-101039438D01*
X109771883Y-101261044D01*
X109837519Y-101474400D01*
X109939901Y-101672759D01*
X109943310Y-101677201D01*
X109943312Y-101677205D01*
X110029975Y-101790146D01*
X110075790Y-101849854D01*
X110240893Y-102000086D01*
X110429990Y-102118707D01*
X110637105Y-102201966D01*
X110642593Y-102203103D01*
X110642598Y-102203104D01*
X110792896Y-102234229D01*
X110855690Y-102247233D01*
X110860303Y-102247499D01*
X110910526Y-102250395D01*
X110910530Y-102250395D01*
X110912349Y-102250500D01*
X111056630Y-102250500D01*
X111059417Y-102250251D01*
X111059423Y-102250251D01*
X111128997Y-102244041D01*
X111222339Y-102235711D01*
X111227753Y-102234230D01*
X111227758Y-102234229D01*
X111355104Y-102199390D01*
X111437651Y-102176808D01*
X111442709Y-102174396D01*
X111442713Y-102174394D01*
X111559462Y-102118707D01*
X111639129Y-102080708D01*
X111820405Y-101950448D01*
X111975749Y-101790146D01*
X112100250Y-101604868D01*
X112189974Y-101400471D01*
X112191282Y-101395023D01*
X112191284Y-101395017D01*
X112240775Y-101188872D01*
X112240775Y-101188871D01*
X112242085Y-101183415D01*
X112250386Y-101039438D01*
X139745066Y-101039438D01*
X139771883Y-101261044D01*
X139837519Y-101474400D01*
X139939901Y-101672759D01*
X139943310Y-101677201D01*
X139943312Y-101677205D01*
X140029975Y-101790146D01*
X140075790Y-101849854D01*
X140240893Y-102000086D01*
X140429990Y-102118707D01*
X140637105Y-102201966D01*
X140642593Y-102203103D01*
X140642598Y-102203104D01*
X140792896Y-102234229D01*
X140855690Y-102247233D01*
X140860303Y-102247499D01*
X140910526Y-102250395D01*
X140910530Y-102250395D01*
X140912349Y-102250500D01*
X141056630Y-102250500D01*
X141059417Y-102250251D01*
X141059423Y-102250251D01*
X141128997Y-102244041D01*
X141222339Y-102235711D01*
X141227753Y-102234230D01*
X141227758Y-102234229D01*
X141355104Y-102199390D01*
X141437651Y-102176808D01*
X141442709Y-102174396D01*
X141442713Y-102174394D01*
X141559462Y-102118707D01*
X141639129Y-102080708D01*
X141820405Y-101950448D01*
X141975749Y-101790146D01*
X142100250Y-101604868D01*
X142189974Y-101400471D01*
X142191282Y-101395023D01*
X142191284Y-101395017D01*
X142240775Y-101188872D01*
X142240775Y-101188871D01*
X142242085Y-101183415D01*
X142250386Y-101039438D01*
X155745066Y-101039438D01*
X155771883Y-101261044D01*
X155837519Y-101474400D01*
X155939901Y-101672759D01*
X155943310Y-101677201D01*
X155943312Y-101677205D01*
X156029975Y-101790146D01*
X156075790Y-101849854D01*
X156240893Y-102000086D01*
X156429990Y-102118707D01*
X156637105Y-102201966D01*
X156642593Y-102203103D01*
X156642598Y-102203104D01*
X156792896Y-102234229D01*
X156855690Y-102247233D01*
X156860303Y-102247499D01*
X156910526Y-102250395D01*
X156910530Y-102250395D01*
X156912349Y-102250500D01*
X157056630Y-102250500D01*
X157059417Y-102250251D01*
X157059423Y-102250251D01*
X157128997Y-102244041D01*
X157222339Y-102235711D01*
X157227753Y-102234230D01*
X157227758Y-102234229D01*
X157355104Y-102199390D01*
X157437651Y-102176808D01*
X157442709Y-102174396D01*
X157442713Y-102174394D01*
X157559462Y-102118707D01*
X157639129Y-102080708D01*
X157820405Y-101950448D01*
X157975749Y-101790146D01*
X158100250Y-101604868D01*
X158189974Y-101400471D01*
X158191282Y-101395023D01*
X158191284Y-101395017D01*
X158240775Y-101188872D01*
X158240775Y-101188871D01*
X158242085Y-101183415D01*
X158250386Y-101039438D01*
X171745066Y-101039438D01*
X171771883Y-101261044D01*
X171837519Y-101474400D01*
X171939901Y-101672759D01*
X171943310Y-101677201D01*
X171943312Y-101677205D01*
X172029975Y-101790146D01*
X172075790Y-101849854D01*
X172240893Y-102000086D01*
X172429990Y-102118707D01*
X172637105Y-102201966D01*
X172642593Y-102203103D01*
X172642598Y-102203104D01*
X172792896Y-102234229D01*
X172855690Y-102247233D01*
X172860303Y-102247499D01*
X172910526Y-102250395D01*
X172910530Y-102250395D01*
X172912349Y-102250500D01*
X173056630Y-102250500D01*
X173059417Y-102250251D01*
X173059423Y-102250251D01*
X173128997Y-102244041D01*
X173222339Y-102235711D01*
X173227753Y-102234230D01*
X173227758Y-102234229D01*
X173355104Y-102199390D01*
X173437651Y-102176808D01*
X173442709Y-102174396D01*
X173442713Y-102174394D01*
X173559462Y-102118707D01*
X173639129Y-102080708D01*
X173820405Y-101950448D01*
X173975749Y-101790146D01*
X174100250Y-101604868D01*
X174189974Y-101400471D01*
X174191282Y-101395023D01*
X174191284Y-101395017D01*
X174240775Y-101188872D01*
X174240775Y-101188871D01*
X174242085Y-101183415D01*
X174254934Y-100960562D01*
X174228117Y-100738956D01*
X174162481Y-100525600D01*
X174060099Y-100327241D01*
X174056690Y-100322799D01*
X174056688Y-100322795D01*
X173927620Y-100154590D01*
X173924210Y-100150146D01*
X173759107Y-99999914D01*
X173570010Y-99881293D01*
X173362895Y-99798034D01*
X173357407Y-99796897D01*
X173357402Y-99796896D01*
X173192845Y-99762818D01*
X173144310Y-99752767D01*
X173139697Y-99752501D01*
X173089474Y-99749605D01*
X173089470Y-99749605D01*
X173087651Y-99749500D01*
X172943370Y-99749500D01*
X172940583Y-99749749D01*
X172940577Y-99749749D01*
X172871003Y-99755959D01*
X172777661Y-99764289D01*
X172772247Y-99765770D01*
X172772242Y-99765771D01*
X172658470Y-99796896D01*
X172562349Y-99823192D01*
X172557291Y-99825604D01*
X172557287Y-99825606D01*
X172461610Y-99871242D01*
X172360871Y-99919292D01*
X172179595Y-100049552D01*
X172024251Y-100209854D01*
X171899750Y-100395132D01*
X171810026Y-100599529D01*
X171808718Y-100604977D01*
X171808716Y-100604983D01*
X171759225Y-100811128D01*
X171757915Y-100816585D01*
X171745066Y-101039438D01*
X158250386Y-101039438D01*
X158254934Y-100960562D01*
X158228117Y-100738956D01*
X158162481Y-100525600D01*
X158060099Y-100327241D01*
X158056690Y-100322799D01*
X158056688Y-100322795D01*
X157927620Y-100154590D01*
X157924210Y-100150146D01*
X157759107Y-99999914D01*
X157570010Y-99881293D01*
X157362895Y-99798034D01*
X157357407Y-99796897D01*
X157357402Y-99796896D01*
X157192845Y-99762818D01*
X157144310Y-99752767D01*
X157139697Y-99752501D01*
X157089474Y-99749605D01*
X157089470Y-99749605D01*
X157087651Y-99749500D01*
X156943370Y-99749500D01*
X156940583Y-99749749D01*
X156940577Y-99749749D01*
X156871003Y-99755959D01*
X156777661Y-99764289D01*
X156772247Y-99765770D01*
X156772242Y-99765771D01*
X156658470Y-99796896D01*
X156562349Y-99823192D01*
X156557291Y-99825604D01*
X156557287Y-99825606D01*
X156461610Y-99871242D01*
X156360871Y-99919292D01*
X156179595Y-100049552D01*
X156024251Y-100209854D01*
X155899750Y-100395132D01*
X155810026Y-100599529D01*
X155808718Y-100604977D01*
X155808716Y-100604983D01*
X155759225Y-100811128D01*
X155757915Y-100816585D01*
X155745066Y-101039438D01*
X142250386Y-101039438D01*
X142254934Y-100960562D01*
X142228117Y-100738956D01*
X142162481Y-100525600D01*
X142060099Y-100327241D01*
X142056690Y-100322799D01*
X142056688Y-100322795D01*
X141927620Y-100154590D01*
X141924210Y-100150146D01*
X141759107Y-99999914D01*
X141570010Y-99881293D01*
X141362895Y-99798034D01*
X141357407Y-99796897D01*
X141357402Y-99796896D01*
X141192845Y-99762818D01*
X141144310Y-99752767D01*
X141139697Y-99752501D01*
X141089474Y-99749605D01*
X141089470Y-99749605D01*
X141087651Y-99749500D01*
X140943370Y-99749500D01*
X140940583Y-99749749D01*
X140940577Y-99749749D01*
X140871003Y-99755959D01*
X140777661Y-99764289D01*
X140772247Y-99765770D01*
X140772242Y-99765771D01*
X140658470Y-99796896D01*
X140562349Y-99823192D01*
X140557291Y-99825604D01*
X140557287Y-99825606D01*
X140461610Y-99871242D01*
X140360871Y-99919292D01*
X140179595Y-100049552D01*
X140024251Y-100209854D01*
X139899750Y-100395132D01*
X139810026Y-100599529D01*
X139808718Y-100604977D01*
X139808716Y-100604983D01*
X139759225Y-100811128D01*
X139757915Y-100816585D01*
X139745066Y-101039438D01*
X112250386Y-101039438D01*
X112254934Y-100960562D01*
X112228117Y-100738956D01*
X112162481Y-100525600D01*
X112060099Y-100327241D01*
X112056690Y-100322799D01*
X112056688Y-100322795D01*
X111927620Y-100154590D01*
X111924210Y-100150146D01*
X111759107Y-99999914D01*
X111570010Y-99881293D01*
X111362895Y-99798034D01*
X111357407Y-99796897D01*
X111357402Y-99796896D01*
X111192845Y-99762818D01*
X111144310Y-99752767D01*
X111139697Y-99752501D01*
X111089474Y-99749605D01*
X111089470Y-99749605D01*
X111087651Y-99749500D01*
X110943370Y-99749500D01*
X110940583Y-99749749D01*
X110940577Y-99749749D01*
X110871003Y-99755959D01*
X110777661Y-99764289D01*
X110772247Y-99765770D01*
X110772242Y-99765771D01*
X110658470Y-99796896D01*
X110562349Y-99823192D01*
X110557291Y-99825604D01*
X110557287Y-99825606D01*
X110461610Y-99871242D01*
X110360871Y-99919292D01*
X110179595Y-100049552D01*
X110024251Y-100209854D01*
X109899750Y-100395132D01*
X109810026Y-100599529D01*
X109808718Y-100604977D01*
X109808716Y-100604983D01*
X109759225Y-100811128D01*
X109757915Y-100816585D01*
X109745066Y-101039438D01*
X95250000Y-101039438D01*
X95250000Y-85599674D01*
X132959500Y-85599674D01*
X132974034Y-85672740D01*
X133029399Y-85755601D01*
X133039714Y-85762493D01*
X133094449Y-85799065D01*
X133112260Y-85810966D01*
X133185326Y-85825500D01*
X134734674Y-85825500D01*
X134807740Y-85810966D01*
X134825552Y-85799065D01*
X134880286Y-85762493D01*
X134890601Y-85755601D01*
X134945966Y-85672740D01*
X134960500Y-85599674D01*
X134960500Y-84941324D01*
X135247297Y-84941324D01*
X135256378Y-85043078D01*
X135258359Y-85054091D01*
X135314651Y-85259860D01*
X135318549Y-85270341D01*
X135410397Y-85462903D01*
X135416082Y-85472516D01*
X135540575Y-85645767D01*
X135547883Y-85654233D01*
X135701082Y-85802692D01*
X135709779Y-85809735D01*
X135886844Y-85928719D01*
X135896641Y-85934105D01*
X135983411Y-85972194D01*
X135997398Y-85973995D01*
X136000000Y-85969812D01*
X136000000Y-85964593D01*
X137000000Y-85964593D01*
X137003973Y-85978124D01*
X137007158Y-85978582D01*
X137009360Y-85977877D01*
X137171804Y-85894034D01*
X137181252Y-85888038D01*
X137350501Y-85758168D01*
X137358724Y-85750607D01*
X137502312Y-85592806D01*
X137509067Y-85583906D01*
X137622434Y-85403185D01*
X137627511Y-85393219D01*
X137707080Y-85195286D01*
X137710315Y-85184571D01*
X137753777Y-84974701D01*
X137754980Y-84965562D01*
X137756276Y-84943085D01*
X137752699Y-84927669D01*
X137741934Y-84925000D01*
X137018115Y-84925000D01*
X137002876Y-84929475D01*
X137001671Y-84930865D01*
X137000000Y-84938548D01*
X137000000Y-85964593D01*
X136000000Y-85964593D01*
X136000000Y-84943115D01*
X135995525Y-84927876D01*
X135994135Y-84926671D01*
X135986452Y-84925000D01*
X135263955Y-84925000D01*
X135249359Y-84929286D01*
X135247297Y-84941324D01*
X134960500Y-84941324D01*
X134960500Y-83906915D01*
X135243724Y-83906915D01*
X135247301Y-83922331D01*
X135258066Y-83925000D01*
X135981885Y-83925000D01*
X135997124Y-83920525D01*
X135998329Y-83919135D01*
X136000000Y-83911452D01*
X136000000Y-83906885D01*
X137000000Y-83906885D01*
X137004475Y-83922124D01*
X137005865Y-83923329D01*
X137013548Y-83925000D01*
X137736045Y-83925000D01*
X137750641Y-83920714D01*
X137752703Y-83908676D01*
X137743622Y-83806922D01*
X137741641Y-83795909D01*
X137685349Y-83590140D01*
X137681451Y-83579659D01*
X137589603Y-83387097D01*
X137583918Y-83377484D01*
X137459425Y-83204233D01*
X137452117Y-83195767D01*
X137298918Y-83047308D01*
X137290221Y-83040265D01*
X137113156Y-82921281D01*
X137103359Y-82915895D01*
X137016589Y-82877806D01*
X137002602Y-82876005D01*
X137000000Y-82880188D01*
X137000000Y-83906885D01*
X136000000Y-83906885D01*
X136000000Y-82885407D01*
X135996027Y-82871876D01*
X135992842Y-82871418D01*
X135990640Y-82872123D01*
X135828196Y-82955966D01*
X135818748Y-82961962D01*
X135649499Y-83091832D01*
X135641276Y-83099393D01*
X135497688Y-83257194D01*
X135490933Y-83266094D01*
X135377566Y-83446815D01*
X135372489Y-83456781D01*
X135292920Y-83654714D01*
X135289685Y-83665429D01*
X135246223Y-83875299D01*
X135245020Y-83884438D01*
X135243724Y-83906915D01*
X134960500Y-83906915D01*
X134960500Y-83534374D01*
X134966667Y-83495439D01*
X134970538Y-83483525D01*
X134970540Y-83483517D01*
X134971310Y-83481148D01*
X134980467Y-83443003D01*
X134995371Y-83348901D01*
X134997679Y-83329405D01*
X134999230Y-83309695D01*
X135000000Y-83290083D01*
X135000000Y-82655744D01*
X135020002Y-82587623D01*
X135036905Y-82566649D01*
X135566649Y-82036905D01*
X135628961Y-82002879D01*
X135655744Y-82000000D01*
X135879667Y-82000000D01*
X135899812Y-82001621D01*
X135914556Y-82004009D01*
X136027588Y-82006081D01*
X136053281Y-82006552D01*
X136057755Y-82006634D01*
X136062197Y-82006081D01*
X136066677Y-82005844D01*
X136066683Y-82005950D01*
X136075415Y-82005408D01*
X136500000Y-82005408D01*
X136597740Y-81985966D01*
X136604624Y-81981366D01*
X136672370Y-81974082D01*
X136693962Y-81980422D01*
X136702260Y-81985966D01*
X136800000Y-82005408D01*
X137289712Y-82005408D01*
X137292020Y-82005429D01*
X137357755Y-82006634D01*
X137403261Y-82000966D01*
X137418834Y-82000000D01*
X137451312Y-82000000D01*
X137519433Y-82020002D01*
X137537488Y-82034077D01*
X137666611Y-82155130D01*
X138110177Y-82570973D01*
X138146193Y-82632156D01*
X138150000Y-82662895D01*
X138150000Y-83536332D01*
X138139637Y-83586372D01*
X138083951Y-83715055D01*
X138083949Y-83715060D01*
X138081414Y-83720919D01*
X138080108Y-83727171D01*
X138041610Y-83911452D01*
X138039849Y-83919880D01*
X138039500Y-83926539D01*
X138039500Y-84875800D01*
X138039823Y-84878979D01*
X138053956Y-85018115D01*
X138054880Y-85027216D01*
X138115662Y-85221172D01*
X138214203Y-85398944D01*
X138346477Y-85553271D01*
X138507081Y-85677848D01*
X138517669Y-85683058D01*
X138649121Y-85747740D01*
X138689455Y-85767587D01*
X138695633Y-85769196D01*
X138695635Y-85769197D01*
X138879966Y-85817212D01*
X138879969Y-85817212D01*
X138886148Y-85818822D01*
X138967328Y-85823076D01*
X139082744Y-85829125D01*
X139082748Y-85829125D01*
X139089126Y-85829459D01*
X139290097Y-85799065D01*
X139480852Y-85728881D01*
X139539710Y-85692388D01*
X139648176Y-85625137D01*
X139648180Y-85625134D01*
X139653599Y-85621774D01*
X139676969Y-85599674D01*
X153459500Y-85599674D01*
X153474034Y-85672740D01*
X153529399Y-85755601D01*
X153539714Y-85762493D01*
X153594449Y-85799065D01*
X153612260Y-85810966D01*
X153685326Y-85825500D01*
X155234674Y-85825500D01*
X155307740Y-85810966D01*
X155325552Y-85799065D01*
X155380286Y-85762493D01*
X155390601Y-85755601D01*
X155445966Y-85672740D01*
X155460500Y-85599674D01*
X155460500Y-84941324D01*
X155747297Y-84941324D01*
X155756378Y-85043078D01*
X155758359Y-85054091D01*
X155814651Y-85259860D01*
X155818549Y-85270341D01*
X155910397Y-85462903D01*
X155916082Y-85472516D01*
X156040575Y-85645767D01*
X156047883Y-85654233D01*
X156201082Y-85802692D01*
X156209779Y-85809735D01*
X156386844Y-85928719D01*
X156396641Y-85934105D01*
X156483411Y-85972194D01*
X156497398Y-85973995D01*
X156500000Y-85969812D01*
X156500000Y-85964593D01*
X157500000Y-85964593D01*
X157503973Y-85978124D01*
X157507158Y-85978582D01*
X157509360Y-85977877D01*
X157671804Y-85894034D01*
X157681252Y-85888038D01*
X157850501Y-85758168D01*
X157858724Y-85750607D01*
X158002312Y-85592806D01*
X158009067Y-85583906D01*
X158122434Y-85403185D01*
X158127511Y-85393219D01*
X158207080Y-85195286D01*
X158210315Y-85184571D01*
X158253777Y-84974701D01*
X158254980Y-84965562D01*
X158256276Y-84943085D01*
X158252699Y-84927669D01*
X158241934Y-84925000D01*
X157518115Y-84925000D01*
X157502876Y-84929475D01*
X157501671Y-84930865D01*
X157500000Y-84938548D01*
X157500000Y-85964593D01*
X156500000Y-85964593D01*
X156500000Y-84943115D01*
X156495525Y-84927876D01*
X156494135Y-84926671D01*
X156486452Y-84925000D01*
X155763955Y-84925000D01*
X155749359Y-84929286D01*
X155747297Y-84941324D01*
X155460500Y-84941324D01*
X155460500Y-83906915D01*
X155743724Y-83906915D01*
X155747301Y-83922331D01*
X155758066Y-83925000D01*
X156481885Y-83925000D01*
X156497124Y-83920525D01*
X156498329Y-83919135D01*
X156500000Y-83911452D01*
X156500000Y-83906885D01*
X157500000Y-83906885D01*
X157504475Y-83922124D01*
X157505865Y-83923329D01*
X157513548Y-83925000D01*
X158236045Y-83925000D01*
X158250641Y-83920714D01*
X158252703Y-83908676D01*
X158243622Y-83806922D01*
X158241641Y-83795909D01*
X158185349Y-83590140D01*
X158181451Y-83579659D01*
X158089603Y-83387097D01*
X158083918Y-83377484D01*
X157959425Y-83204233D01*
X157952117Y-83195767D01*
X157798918Y-83047308D01*
X157790221Y-83040265D01*
X157613156Y-82921281D01*
X157603359Y-82915895D01*
X157516589Y-82877806D01*
X157502602Y-82876005D01*
X157500000Y-82880188D01*
X157500000Y-83906885D01*
X156500000Y-83906885D01*
X156500000Y-82885407D01*
X156496027Y-82871876D01*
X156492842Y-82871418D01*
X156490640Y-82872123D01*
X156328196Y-82955966D01*
X156318748Y-82961962D01*
X156149499Y-83091832D01*
X156141276Y-83099393D01*
X155997688Y-83257194D01*
X155990933Y-83266094D01*
X155877566Y-83446815D01*
X155872489Y-83456781D01*
X155792920Y-83654714D01*
X155789685Y-83665429D01*
X155746223Y-83875299D01*
X155745020Y-83884438D01*
X155743724Y-83906915D01*
X155460500Y-83906915D01*
X155460500Y-83534374D01*
X155466667Y-83495439D01*
X155470538Y-83483525D01*
X155470540Y-83483517D01*
X155471310Y-83481148D01*
X155480467Y-83443003D01*
X155495371Y-83348901D01*
X155497679Y-83329405D01*
X155499230Y-83309695D01*
X155500000Y-83290083D01*
X155500000Y-82655744D01*
X155520002Y-82587623D01*
X155536905Y-82566649D01*
X156066649Y-82036905D01*
X156128961Y-82002879D01*
X156155744Y-82000000D01*
X156379667Y-82000000D01*
X156399812Y-82001621D01*
X156414556Y-82004009D01*
X156527588Y-82006081D01*
X156553281Y-82006552D01*
X156557755Y-82006634D01*
X156562197Y-82006081D01*
X156566677Y-82005844D01*
X156566683Y-82005950D01*
X156575415Y-82005408D01*
X157000000Y-82005408D01*
X157097740Y-81985966D01*
X157104624Y-81981366D01*
X157172370Y-81974082D01*
X157193962Y-81980422D01*
X157202260Y-81985966D01*
X157300000Y-82005408D01*
X157789712Y-82005408D01*
X157792020Y-82005429D01*
X157857755Y-82006634D01*
X157903261Y-82000966D01*
X157918834Y-82000000D01*
X157951312Y-82000000D01*
X158019433Y-82020002D01*
X158037488Y-82034077D01*
X158166611Y-82155130D01*
X158610177Y-82570973D01*
X158646193Y-82632156D01*
X158650000Y-82662895D01*
X158650000Y-83536332D01*
X158639637Y-83586372D01*
X158583951Y-83715055D01*
X158583949Y-83715060D01*
X158581414Y-83720919D01*
X158580108Y-83727171D01*
X158541610Y-83911452D01*
X158539849Y-83919880D01*
X158539500Y-83926539D01*
X158539500Y-84875800D01*
X158539823Y-84878979D01*
X158553956Y-85018115D01*
X158554880Y-85027216D01*
X158615662Y-85221172D01*
X158714203Y-85398944D01*
X158846477Y-85553271D01*
X159007081Y-85677848D01*
X159017669Y-85683058D01*
X159149121Y-85747740D01*
X159189455Y-85767587D01*
X159195633Y-85769196D01*
X159195635Y-85769197D01*
X159379966Y-85817212D01*
X159379969Y-85817212D01*
X159386148Y-85818822D01*
X159467328Y-85823076D01*
X159582744Y-85829125D01*
X159582748Y-85829125D01*
X159589126Y-85829459D01*
X159790097Y-85799065D01*
X159980852Y-85728881D01*
X160039710Y-85692388D01*
X160068280Y-85674674D01*
X172959500Y-85674674D01*
X172974034Y-85747740D01*
X172980928Y-85758057D01*
X172980928Y-85758058D01*
X172983891Y-85762493D01*
X173029399Y-85830601D01*
X173039714Y-85837493D01*
X173094449Y-85874065D01*
X173112260Y-85885966D01*
X173185326Y-85900500D01*
X174734674Y-85900500D01*
X174807740Y-85885966D01*
X174825552Y-85874065D01*
X174880286Y-85837493D01*
X174890601Y-85830601D01*
X174936109Y-85762493D01*
X174939072Y-85758058D01*
X174939072Y-85758057D01*
X174945966Y-85747740D01*
X174960500Y-85674674D01*
X174960500Y-85016324D01*
X175247297Y-85016324D01*
X175256378Y-85118078D01*
X175258359Y-85129091D01*
X175314651Y-85334860D01*
X175318549Y-85345341D01*
X175410397Y-85537903D01*
X175416082Y-85547516D01*
X175540575Y-85720767D01*
X175547883Y-85729233D01*
X175701082Y-85877692D01*
X175709779Y-85884735D01*
X175886844Y-86003719D01*
X175896641Y-86009105D01*
X175983411Y-86047194D01*
X175997398Y-86048995D01*
X176000000Y-86044812D01*
X176000000Y-86039593D01*
X177000000Y-86039593D01*
X177003973Y-86053124D01*
X177007158Y-86053582D01*
X177009360Y-86052877D01*
X177171804Y-85969034D01*
X177181252Y-85963038D01*
X177350501Y-85833168D01*
X177358724Y-85825607D01*
X177502312Y-85667806D01*
X177509067Y-85658906D01*
X177622434Y-85478185D01*
X177627511Y-85468219D01*
X177707080Y-85270286D01*
X177710315Y-85259571D01*
X177753777Y-85049701D01*
X177754980Y-85040562D01*
X177756276Y-85018085D01*
X177752699Y-85002669D01*
X177741934Y-85000000D01*
X177018115Y-85000000D01*
X177002876Y-85004475D01*
X177001671Y-85005865D01*
X177000000Y-85013548D01*
X177000000Y-86039593D01*
X176000000Y-86039593D01*
X176000000Y-85018115D01*
X175995525Y-85002876D01*
X175994135Y-85001671D01*
X175986452Y-85000000D01*
X175263955Y-85000000D01*
X175249359Y-85004286D01*
X175247297Y-85016324D01*
X174960500Y-85016324D01*
X174960500Y-83981915D01*
X175243724Y-83981915D01*
X175247301Y-83997331D01*
X175258066Y-84000000D01*
X175981885Y-84000000D01*
X175997124Y-83995525D01*
X175998329Y-83994135D01*
X176000000Y-83986452D01*
X176000000Y-83981885D01*
X177000000Y-83981885D01*
X177004475Y-83997124D01*
X177005865Y-83998329D01*
X177013548Y-84000000D01*
X177736045Y-84000000D01*
X177750641Y-83995714D01*
X177752703Y-83983676D01*
X177743622Y-83881922D01*
X177741641Y-83870909D01*
X177685349Y-83665140D01*
X177681451Y-83654659D01*
X177589603Y-83462097D01*
X177583918Y-83452484D01*
X177459425Y-83279233D01*
X177452117Y-83270767D01*
X177298918Y-83122308D01*
X177290221Y-83115265D01*
X177113156Y-82996281D01*
X177103359Y-82990895D01*
X177016589Y-82952806D01*
X177002602Y-82951005D01*
X177000000Y-82955188D01*
X177000000Y-83981885D01*
X176000000Y-83981885D01*
X176000000Y-82960407D01*
X175996027Y-82946876D01*
X175992842Y-82946418D01*
X175990640Y-82947123D01*
X175828196Y-83030966D01*
X175818748Y-83036962D01*
X175649499Y-83166832D01*
X175641276Y-83174393D01*
X175497688Y-83332194D01*
X175490933Y-83341094D01*
X175377566Y-83521815D01*
X175372489Y-83531781D01*
X175292920Y-83729714D01*
X175289685Y-83740429D01*
X175246223Y-83950299D01*
X175245020Y-83959438D01*
X175243724Y-83981915D01*
X174960500Y-83981915D01*
X174960500Y-83534374D01*
X174966667Y-83495439D01*
X174970538Y-83483525D01*
X174970540Y-83483517D01*
X174971310Y-83481148D01*
X174980467Y-83443003D01*
X174995371Y-83348901D01*
X174997679Y-83329405D01*
X174999230Y-83309695D01*
X175000000Y-83290083D01*
X175000000Y-82655744D01*
X175020002Y-82587623D01*
X175036905Y-82566649D01*
X175566649Y-82036905D01*
X175628961Y-82002879D01*
X175655744Y-82000000D01*
X175729667Y-82000000D01*
X175749812Y-82001621D01*
X175764556Y-82004009D01*
X175877588Y-82006081D01*
X175903281Y-82006552D01*
X175907755Y-82006634D01*
X175912197Y-82006081D01*
X175916677Y-82005844D01*
X175916683Y-82005950D01*
X175925415Y-82005408D01*
X176350000Y-82005408D01*
X176447740Y-81985966D01*
X176454624Y-81981366D01*
X176522370Y-81974082D01*
X176543962Y-81980422D01*
X176552260Y-81985966D01*
X176650000Y-82005408D01*
X177139712Y-82005408D01*
X177142020Y-82005429D01*
X177207755Y-82006634D01*
X177253261Y-82000966D01*
X177268834Y-82000000D01*
X177451312Y-82000000D01*
X177519433Y-82020002D01*
X177537488Y-82034077D01*
X177666611Y-82155130D01*
X178110177Y-82570973D01*
X178146193Y-82632156D01*
X178150000Y-82662895D01*
X178150000Y-83590083D01*
X178150049Y-83591329D01*
X178150579Y-83604827D01*
X178140313Y-83659811D01*
X178081414Y-83795919D01*
X178080108Y-83802171D01*
X178041610Y-83986452D01*
X178039849Y-83994880D01*
X178039500Y-84001539D01*
X178039500Y-84950800D01*
X178041928Y-84974701D01*
X178048618Y-85040562D01*
X178054880Y-85102216D01*
X178115662Y-85296172D01*
X178214203Y-85473944D01*
X178346477Y-85628271D01*
X178351514Y-85632178D01*
X178351516Y-85632180D01*
X178379947Y-85654233D01*
X178507081Y-85752848D01*
X178689455Y-85842587D01*
X178695633Y-85844196D01*
X178695635Y-85844197D01*
X178879966Y-85892212D01*
X178879969Y-85892212D01*
X178886148Y-85893822D01*
X178967328Y-85898076D01*
X179082744Y-85904125D01*
X179082748Y-85904125D01*
X179089126Y-85904459D01*
X179290097Y-85874065D01*
X179480852Y-85803881D01*
X179487079Y-85800020D01*
X179648176Y-85700137D01*
X179648180Y-85700134D01*
X179653599Y-85696774D01*
X179749864Y-85605741D01*
X179796639Y-85561508D01*
X179796640Y-85561507D01*
X179801280Y-85557119D01*
X179917863Y-85390621D01*
X179998586Y-85204081D01*
X180021193Y-85095868D01*
X180039162Y-85009856D01*
X180039163Y-85009851D01*
X180040151Y-85005120D01*
X180040500Y-84998461D01*
X180040500Y-84049200D01*
X180032559Y-83971021D01*
X180025765Y-83904132D01*
X180025765Y-83904130D01*
X180025120Y-83897784D01*
X179988011Y-83779369D01*
X179983796Y-83721983D01*
X179993643Y-83659812D01*
X179995179Y-83650115D01*
X179995181Y-83650101D01*
X179995371Y-83648901D01*
X179997679Y-83629405D01*
X179999230Y-83609695D01*
X180000000Y-83590083D01*
X180000000Y-81928095D01*
X179998796Y-81903591D01*
X179998645Y-81902055D01*
X179996527Y-81880549D01*
X179996525Y-81880532D01*
X179996375Y-81879010D01*
X179992776Y-81854743D01*
X179992406Y-81852880D01*
X179984567Y-81813472D01*
X179984566Y-81813469D01*
X179970239Y-81741445D01*
X179969637Y-81738418D01*
X179955411Y-81691522D01*
X179936598Y-81646103D01*
X179913495Y-81602880D01*
X179847603Y-81504266D01*
X179832985Y-81484556D01*
X179817315Y-81465463D01*
X179807661Y-81454812D01*
X179801875Y-81448427D01*
X179801863Y-81448415D01*
X179800843Y-81447289D01*
X178552711Y-80199157D01*
X178551585Y-80198137D01*
X178551573Y-80198125D01*
X178545188Y-80192339D01*
X178534537Y-80182685D01*
X178533347Y-80181708D01*
X178533335Y-80181698D01*
X178516654Y-80168008D01*
X178516652Y-80168007D01*
X178515444Y-80167015D01*
X178495733Y-80152396D01*
X178494439Y-80151531D01*
X178466163Y-80132638D01*
X178397118Y-80086504D01*
X178353898Y-80063403D01*
X178308480Y-80044590D01*
X178305537Y-80043697D01*
X178305528Y-80043694D01*
X178264552Y-80031264D01*
X178264547Y-80031263D01*
X178261581Y-80030363D01*
X178201077Y-80018328D01*
X178146790Y-80007529D01*
X178146769Y-80007525D01*
X178145259Y-80007225D01*
X178143719Y-80006997D01*
X178143710Y-80006995D01*
X178122549Y-80003856D01*
X178122539Y-80003855D01*
X178120990Y-80003625D01*
X178119435Y-80003472D01*
X178119420Y-80003470D01*
X178097945Y-80001355D01*
X178097934Y-80001354D01*
X178096409Y-80001204D01*
X178094885Y-80001129D01*
X178094870Y-80001128D01*
X178073457Y-80000076D01*
X178073447Y-80000076D01*
X178071905Y-80000000D01*
X177269018Y-80000000D01*
X177250395Y-79998616D01*
X177230656Y-79995666D01*
X177230654Y-79995666D01*
X177226225Y-79995004D01*
X177156320Y-79994577D01*
X177087484Y-79994156D01*
X177087479Y-79994156D01*
X177083004Y-79994129D01*
X177080535Y-79994467D01*
X177076693Y-79994592D01*
X176650000Y-79994592D01*
X176552260Y-80014034D01*
X176545376Y-80018634D01*
X176477630Y-80025918D01*
X176456038Y-80019578D01*
X176447740Y-80014034D01*
X176350000Y-79994592D01*
X175859232Y-79994592D01*
X175858462Y-79994590D01*
X175787490Y-79994156D01*
X175787484Y-79994156D01*
X175783004Y-79994129D01*
X175778561Y-79994738D01*
X175778555Y-79994738D01*
X175748657Y-79998834D01*
X175731557Y-80000000D01*
X175178095Y-80000000D01*
X175176553Y-80000076D01*
X175176543Y-80000076D01*
X175155130Y-80001128D01*
X175155115Y-80001129D01*
X175153591Y-80001204D01*
X175152066Y-80001354D01*
X175152055Y-80001355D01*
X175130580Y-80003470D01*
X175130565Y-80003472D01*
X175129010Y-80003625D01*
X175127461Y-80003855D01*
X175127451Y-80003856D01*
X175106290Y-80006995D01*
X175106281Y-80006997D01*
X175104741Y-80007225D01*
X175103231Y-80007525D01*
X175103210Y-80007529D01*
X175048923Y-80018328D01*
X174988419Y-80030363D01*
X174985453Y-80031263D01*
X174985448Y-80031264D01*
X174944472Y-80043694D01*
X174944463Y-80043697D01*
X174941520Y-80044590D01*
X174896102Y-80063403D01*
X174852882Y-80086504D01*
X174783837Y-80132638D01*
X174754267Y-80152396D01*
X174734556Y-80167015D01*
X174733348Y-80168007D01*
X174733346Y-80168008D01*
X174716665Y-80181698D01*
X174716653Y-80181708D01*
X174715463Y-80182685D01*
X174704812Y-80192339D01*
X174698427Y-80198125D01*
X174698415Y-80198137D01*
X174697289Y-80199157D01*
X173199157Y-81697289D01*
X173198137Y-81698415D01*
X173198125Y-81698427D01*
X173192339Y-81704812D01*
X173182685Y-81715463D01*
X173167015Y-81734556D01*
X173152397Y-81754266D01*
X173086505Y-81852880D01*
X173063402Y-81896102D01*
X173044588Y-81941523D01*
X173043692Y-81944478D01*
X173032409Y-81981672D01*
X173030361Y-81988422D01*
X173007224Y-82104742D01*
X173003625Y-82129010D01*
X173001204Y-82153591D01*
X173000000Y-82178095D01*
X173000000Y-83175178D01*
X172983498Y-83229576D01*
X172985677Y-83230479D01*
X172980930Y-83241939D01*
X172974034Y-83252260D01*
X172959500Y-83325326D01*
X172959500Y-85674674D01*
X160068280Y-85674674D01*
X160148176Y-85625137D01*
X160148180Y-85625134D01*
X160153599Y-85621774D01*
X160193643Y-85583906D01*
X160296639Y-85486508D01*
X160296640Y-85486507D01*
X160301280Y-85482119D01*
X160417863Y-85315621D01*
X160498586Y-85129081D01*
X160522722Y-85013548D01*
X160539162Y-84934856D01*
X160539163Y-84934851D01*
X160540151Y-84930120D01*
X160540500Y-84923461D01*
X160540500Y-83974200D01*
X160532119Y-83891693D01*
X160525765Y-83829132D01*
X160525765Y-83829130D01*
X160525120Y-83822784D01*
X160495902Y-83729550D01*
X160491687Y-83672160D01*
X160495182Y-83650097D01*
X160495185Y-83650076D01*
X160495371Y-83648901D01*
X160497679Y-83629405D01*
X160499230Y-83609695D01*
X160500000Y-83590083D01*
X160500000Y-81928095D01*
X160498796Y-81903591D01*
X160498645Y-81902055D01*
X160496527Y-81880549D01*
X160496525Y-81880532D01*
X160496375Y-81879010D01*
X160492776Y-81854743D01*
X160492406Y-81852880D01*
X160484567Y-81813472D01*
X160484566Y-81813469D01*
X160470239Y-81741445D01*
X160469637Y-81738418D01*
X160455411Y-81691522D01*
X160450076Y-81678642D01*
X160437780Y-81648956D01*
X160437778Y-81648952D01*
X160436598Y-81646103D01*
X160413498Y-81602885D01*
X160403737Y-81588276D01*
X160403734Y-81588270D01*
X160347603Y-81504265D01*
X160332985Y-81484556D01*
X160331998Y-81483354D01*
X160331986Y-81483338D01*
X160318302Y-81466665D01*
X160318292Y-81466653D01*
X160317315Y-81465463D01*
X160307661Y-81454812D01*
X160301875Y-81448427D01*
X160301863Y-81448415D01*
X160300843Y-81447289D01*
X159052711Y-80199157D01*
X159051585Y-80198137D01*
X159051573Y-80198125D01*
X159045188Y-80192339D01*
X159034537Y-80182685D01*
X159033347Y-80181708D01*
X159033335Y-80181698D01*
X159016654Y-80168008D01*
X159016652Y-80168007D01*
X159015444Y-80167015D01*
X158995733Y-80152396D01*
X158994439Y-80151531D01*
X158966163Y-80132638D01*
X158897118Y-80086504D01*
X158853898Y-80063403D01*
X158808480Y-80044590D01*
X158805537Y-80043697D01*
X158805528Y-80043694D01*
X158764552Y-80031264D01*
X158764547Y-80031263D01*
X158761581Y-80030363D01*
X158701077Y-80018328D01*
X158646790Y-80007529D01*
X158646769Y-80007525D01*
X158645259Y-80007225D01*
X158643719Y-80006997D01*
X158643710Y-80006995D01*
X158622549Y-80003856D01*
X158622539Y-80003855D01*
X158620990Y-80003625D01*
X158619435Y-80003472D01*
X158619420Y-80003470D01*
X158597945Y-80001355D01*
X158597934Y-80001354D01*
X158596409Y-80001204D01*
X158594885Y-80001129D01*
X158594870Y-80001128D01*
X158573457Y-80000076D01*
X158573447Y-80000076D01*
X158571905Y-80000000D01*
X157919018Y-80000000D01*
X157900395Y-79998616D01*
X157880656Y-79995666D01*
X157880654Y-79995666D01*
X157876225Y-79995004D01*
X157806320Y-79994577D01*
X157737484Y-79994156D01*
X157737479Y-79994156D01*
X157733004Y-79994129D01*
X157730535Y-79994467D01*
X157726693Y-79994592D01*
X157300000Y-79994592D01*
X157202260Y-80014034D01*
X157195376Y-80018634D01*
X157127630Y-80025918D01*
X157106038Y-80019578D01*
X157097740Y-80014034D01*
X157000000Y-79994592D01*
X156509232Y-79994592D01*
X156508462Y-79994590D01*
X156437490Y-79994156D01*
X156437484Y-79994156D01*
X156433004Y-79994129D01*
X156428561Y-79994738D01*
X156428555Y-79994738D01*
X156398657Y-79998834D01*
X156381557Y-80000000D01*
X155678095Y-80000000D01*
X155676553Y-80000076D01*
X155676543Y-80000076D01*
X155655130Y-80001128D01*
X155655115Y-80001129D01*
X155653591Y-80001204D01*
X155652066Y-80001354D01*
X155652055Y-80001355D01*
X155630580Y-80003470D01*
X155630565Y-80003472D01*
X155629010Y-80003625D01*
X155627461Y-80003855D01*
X155627451Y-80003856D01*
X155606290Y-80006995D01*
X155606281Y-80006997D01*
X155604741Y-80007225D01*
X155603231Y-80007525D01*
X155603210Y-80007529D01*
X155548923Y-80018328D01*
X155488419Y-80030363D01*
X155485453Y-80031263D01*
X155485448Y-80031264D01*
X155444472Y-80043694D01*
X155444463Y-80043697D01*
X155441520Y-80044590D01*
X155396102Y-80063403D01*
X155352882Y-80086504D01*
X155283837Y-80132638D01*
X155254267Y-80152396D01*
X155234556Y-80167015D01*
X155233348Y-80168007D01*
X155233346Y-80168008D01*
X155216665Y-80181698D01*
X155216653Y-80181708D01*
X155215463Y-80182685D01*
X155204812Y-80192339D01*
X155198427Y-80198125D01*
X155198415Y-80198137D01*
X155197289Y-80199157D01*
X153699157Y-81697289D01*
X153698137Y-81698415D01*
X153698125Y-81698427D01*
X153692339Y-81704812D01*
X153682685Y-81715463D01*
X153667015Y-81734556D01*
X153652397Y-81754266D01*
X153586505Y-81852880D01*
X153563402Y-81896102D01*
X153544588Y-81941523D01*
X153543692Y-81944478D01*
X153532409Y-81981672D01*
X153530361Y-81988422D01*
X153507224Y-82104742D01*
X153503625Y-82129010D01*
X153501204Y-82153591D01*
X153500000Y-82178095D01*
X153500000Y-83100178D01*
X153483498Y-83154576D01*
X153485677Y-83155479D01*
X153480930Y-83166939D01*
X153474034Y-83177260D01*
X153459500Y-83250326D01*
X153459500Y-85599674D01*
X139676969Y-85599674D01*
X139693643Y-85583906D01*
X139796639Y-85486508D01*
X139796640Y-85486507D01*
X139801280Y-85482119D01*
X139917863Y-85315621D01*
X139998586Y-85129081D01*
X140022722Y-85013548D01*
X140039162Y-84934856D01*
X140039163Y-84934851D01*
X140040151Y-84930120D01*
X140040500Y-84923461D01*
X140040500Y-83974200D01*
X140032119Y-83891693D01*
X140025765Y-83829132D01*
X140025765Y-83829130D01*
X140025120Y-83822784D01*
X139995902Y-83729550D01*
X139991687Y-83672160D01*
X139995182Y-83650097D01*
X139995185Y-83650076D01*
X139995371Y-83648901D01*
X139997679Y-83629405D01*
X139999230Y-83609695D01*
X140000000Y-83590083D01*
X140000000Y-81928095D01*
X139998796Y-81903591D01*
X139998645Y-81902055D01*
X139996527Y-81880549D01*
X139996525Y-81880532D01*
X139996375Y-81879010D01*
X139992776Y-81854743D01*
X139992406Y-81852880D01*
X139984567Y-81813472D01*
X139984566Y-81813469D01*
X139970239Y-81741445D01*
X139969637Y-81738418D01*
X139955411Y-81691522D01*
X139936598Y-81646103D01*
X139913495Y-81602880D01*
X139847603Y-81504266D01*
X139832985Y-81484556D01*
X139817315Y-81465463D01*
X139807661Y-81454812D01*
X139801875Y-81448427D01*
X139801863Y-81448415D01*
X139800843Y-81447289D01*
X138552711Y-80199157D01*
X138551585Y-80198137D01*
X138551573Y-80198125D01*
X138545188Y-80192339D01*
X138534537Y-80182685D01*
X138533347Y-80181708D01*
X138533335Y-80181698D01*
X138516654Y-80168008D01*
X138516652Y-80168007D01*
X138515444Y-80167015D01*
X138495733Y-80152396D01*
X138494439Y-80151531D01*
X138466163Y-80132638D01*
X138397118Y-80086504D01*
X138353898Y-80063403D01*
X138308480Y-80044590D01*
X138305537Y-80043697D01*
X138305528Y-80043694D01*
X138264552Y-80031264D01*
X138264547Y-80031263D01*
X138261581Y-80030363D01*
X138201077Y-80018328D01*
X138146790Y-80007529D01*
X138146769Y-80007525D01*
X138145259Y-80007225D01*
X138143719Y-80006997D01*
X138143710Y-80006995D01*
X138122549Y-80003856D01*
X138122539Y-80003855D01*
X138120990Y-80003625D01*
X138119435Y-80003472D01*
X138119420Y-80003470D01*
X138097945Y-80001355D01*
X138097934Y-80001354D01*
X138096409Y-80001204D01*
X138094885Y-80001129D01*
X138094870Y-80001128D01*
X138073457Y-80000076D01*
X138073447Y-80000076D01*
X138071905Y-80000000D01*
X137419018Y-80000000D01*
X137400395Y-79998616D01*
X137380656Y-79995666D01*
X137380654Y-79995666D01*
X137376225Y-79995004D01*
X137306320Y-79994577D01*
X137237484Y-79994156D01*
X137237479Y-79994156D01*
X137233004Y-79994129D01*
X137230535Y-79994467D01*
X137226693Y-79994592D01*
X136800000Y-79994592D01*
X136702260Y-80014034D01*
X136695376Y-80018634D01*
X136627630Y-80025918D01*
X136606038Y-80019578D01*
X136597740Y-80014034D01*
X136500000Y-79994592D01*
X136009232Y-79994592D01*
X136008462Y-79994590D01*
X135937490Y-79994156D01*
X135937484Y-79994156D01*
X135933004Y-79994129D01*
X135928561Y-79994738D01*
X135928555Y-79994738D01*
X135898657Y-79998834D01*
X135881557Y-80000000D01*
X135178095Y-80000000D01*
X135176553Y-80000076D01*
X135176543Y-80000076D01*
X135155130Y-80001128D01*
X135155115Y-80001129D01*
X135153591Y-80001204D01*
X135152066Y-80001354D01*
X135152055Y-80001355D01*
X135130580Y-80003470D01*
X135130565Y-80003472D01*
X135129010Y-80003625D01*
X135127461Y-80003855D01*
X135127451Y-80003856D01*
X135106290Y-80006995D01*
X135106281Y-80006997D01*
X135104741Y-80007225D01*
X135103231Y-80007525D01*
X135103210Y-80007529D01*
X135048923Y-80018328D01*
X134988419Y-80030363D01*
X134985453Y-80031263D01*
X134985448Y-80031264D01*
X134944472Y-80043694D01*
X134944463Y-80043697D01*
X134941520Y-80044590D01*
X134896102Y-80063403D01*
X134852882Y-80086504D01*
X134783837Y-80132638D01*
X134754267Y-80152396D01*
X134734556Y-80167015D01*
X134733348Y-80168007D01*
X134733346Y-80168008D01*
X134716665Y-80181698D01*
X134716653Y-80181708D01*
X134715463Y-80182685D01*
X134704812Y-80192339D01*
X134698427Y-80198125D01*
X134698415Y-80198137D01*
X134697289Y-80199157D01*
X133199157Y-81697289D01*
X133198137Y-81698415D01*
X133198125Y-81698427D01*
X133192339Y-81704812D01*
X133182685Y-81715463D01*
X133167015Y-81734556D01*
X133152397Y-81754266D01*
X133086505Y-81852880D01*
X133063402Y-81896102D01*
X133044588Y-81941523D01*
X133043692Y-81944478D01*
X133032409Y-81981672D01*
X133030361Y-81988422D01*
X133007224Y-82104742D01*
X133003625Y-82129010D01*
X133001204Y-82153591D01*
X133000000Y-82178095D01*
X133000000Y-83100178D01*
X132983498Y-83154576D01*
X132985677Y-83155479D01*
X132980930Y-83166939D01*
X132974034Y-83177260D01*
X132959500Y-83250326D01*
X132959500Y-85599674D01*
X95250000Y-85599674D01*
X95250000Y-57042095D01*
X96145028Y-57042095D01*
X96170534Y-57309431D01*
X96234364Y-57570285D01*
X96335182Y-57819192D01*
X96470875Y-58050938D01*
X96473728Y-58054505D01*
X96585225Y-58193925D01*
X96638601Y-58260669D01*
X96834846Y-58443991D01*
X96927039Y-58507948D01*
X97051746Y-58594461D01*
X97051751Y-58594464D01*
X97055499Y-58597064D01*
X97059584Y-58599096D01*
X97059587Y-58599098D01*
X97175718Y-58656872D01*
X97295938Y-58716680D01*
X97300272Y-58718101D01*
X97300275Y-58718102D01*
X97546793Y-58798915D01*
X97546798Y-58798916D01*
X97551126Y-58800335D01*
X97555617Y-58801115D01*
X97555618Y-58801115D01*
X97811936Y-58845620D01*
X97811944Y-58845621D01*
X97815717Y-58846276D01*
X97819554Y-58846467D01*
X97898996Y-58850422D01*
X97899004Y-58850422D01*
X97900567Y-58850500D01*
X98068223Y-58850500D01*
X98070491Y-58850335D01*
X98070503Y-58850335D01*
X98200823Y-58840879D01*
X98267846Y-58836016D01*
X98272301Y-58835032D01*
X98272304Y-58835032D01*
X98525620Y-58779105D01*
X98525624Y-58779104D01*
X98530080Y-58778120D01*
X98697617Y-58714646D01*
X98776941Y-58684593D01*
X98776944Y-58684592D01*
X98781211Y-58682975D01*
X99015976Y-58552574D01*
X99158254Y-58443991D01*
X99225833Y-58392417D01*
X99225837Y-58392413D01*
X99229458Y-58389650D01*
X99417185Y-58197614D01*
X99575225Y-57980491D01*
X99662313Y-57814963D01*
X99698140Y-57746868D01*
X99698143Y-57746862D01*
X99700265Y-57742828D01*
X99759703Y-57574515D01*
X99788165Y-57493916D01*
X99788165Y-57493915D01*
X99789688Y-57489603D01*
X99841620Y-57226122D01*
X99841847Y-57221566D01*
X99850781Y-57042095D01*
X184145028Y-57042095D01*
X184170534Y-57309431D01*
X184234364Y-57570285D01*
X184335182Y-57819192D01*
X184470875Y-58050938D01*
X184473728Y-58054505D01*
X184585225Y-58193925D01*
X184638601Y-58260669D01*
X184834846Y-58443991D01*
X184927039Y-58507948D01*
X185051746Y-58594461D01*
X185051751Y-58594464D01*
X185055499Y-58597064D01*
X185059584Y-58599096D01*
X185059587Y-58599098D01*
X185175718Y-58656872D01*
X185295938Y-58716680D01*
X185300272Y-58718101D01*
X185300275Y-58718102D01*
X185546793Y-58798915D01*
X185546798Y-58798916D01*
X185551126Y-58800335D01*
X185555617Y-58801115D01*
X185555618Y-58801115D01*
X185811936Y-58845620D01*
X185811944Y-58845621D01*
X185815717Y-58846276D01*
X185819554Y-58846467D01*
X185898996Y-58850422D01*
X185899004Y-58850422D01*
X185900567Y-58850500D01*
X186068223Y-58850500D01*
X186070491Y-58850335D01*
X186070503Y-58850335D01*
X186200823Y-58840879D01*
X186267846Y-58836016D01*
X186272301Y-58835032D01*
X186272304Y-58835032D01*
X186525620Y-58779105D01*
X186525624Y-58779104D01*
X186530080Y-58778120D01*
X186697617Y-58714646D01*
X186776941Y-58684593D01*
X186776944Y-58684592D01*
X186781211Y-58682975D01*
X187015976Y-58552574D01*
X187158254Y-58443991D01*
X187225833Y-58392417D01*
X187225837Y-58392413D01*
X187229458Y-58389650D01*
X187417185Y-58197614D01*
X187575225Y-57980491D01*
X187662313Y-57814963D01*
X187698140Y-57746868D01*
X187698143Y-57746862D01*
X187700265Y-57742828D01*
X187759703Y-57574515D01*
X187788165Y-57493916D01*
X187788165Y-57493915D01*
X187789688Y-57489603D01*
X187841620Y-57226122D01*
X187841847Y-57221566D01*
X187854745Y-56962474D01*
X187854745Y-56962468D01*
X187854972Y-56957905D01*
X187829466Y-56690569D01*
X187793208Y-56542391D01*
X187766721Y-56434149D01*
X187765636Y-56429715D01*
X187669195Y-56191613D01*
X187666531Y-56185037D01*
X187666531Y-56185036D01*
X187664818Y-56180808D01*
X187529125Y-55949062D01*
X187418211Y-55810371D01*
X187364251Y-55742897D01*
X187364250Y-55742895D01*
X187361399Y-55739331D01*
X187165154Y-55556009D01*
X187005436Y-55445208D01*
X186948254Y-55405539D01*
X186948249Y-55405536D01*
X186944501Y-55402936D01*
X186940416Y-55400904D01*
X186940413Y-55400902D01*
X186747520Y-55304940D01*
X186704062Y-55283320D01*
X186699728Y-55281899D01*
X186699725Y-55281898D01*
X186453207Y-55201085D01*
X186453202Y-55201084D01*
X186448874Y-55199665D01*
X186444382Y-55198885D01*
X186188064Y-55154380D01*
X186188056Y-55154379D01*
X186184283Y-55153724D01*
X186175622Y-55153293D01*
X186101004Y-55149578D01*
X186100996Y-55149578D01*
X186099433Y-55149500D01*
X185931777Y-55149500D01*
X185929509Y-55149665D01*
X185929497Y-55149665D01*
X185799177Y-55159121D01*
X185732154Y-55163984D01*
X185727699Y-55164968D01*
X185727696Y-55164968D01*
X185474380Y-55220895D01*
X185474376Y-55220896D01*
X185469920Y-55221880D01*
X185405879Y-55246143D01*
X185223059Y-55315407D01*
X185223056Y-55315408D01*
X185218789Y-55317025D01*
X184984024Y-55447426D01*
X184980392Y-55450198D01*
X184774167Y-55607583D01*
X184774163Y-55607587D01*
X184770542Y-55610350D01*
X184582815Y-55802386D01*
X184580130Y-55806075D01*
X184448580Y-55986805D01*
X184424775Y-56019509D01*
X184422651Y-56023547D01*
X184301860Y-56253132D01*
X184301857Y-56253138D01*
X184299735Y-56257172D01*
X184298215Y-56261477D01*
X184298213Y-56261481D01*
X184211835Y-56506084D01*
X184210312Y-56510397D01*
X184158380Y-56773878D01*
X184158153Y-56778431D01*
X184158153Y-56778434D01*
X184148992Y-56962474D01*
X184145028Y-57042095D01*
X99850781Y-57042095D01*
X99854745Y-56962474D01*
X99854745Y-56962468D01*
X99854972Y-56957905D01*
X99829466Y-56690569D01*
X99793208Y-56542391D01*
X99766721Y-56434149D01*
X99765636Y-56429715D01*
X99669195Y-56191613D01*
X99666531Y-56185037D01*
X99666531Y-56185036D01*
X99664818Y-56180808D01*
X99529125Y-55949062D01*
X99418211Y-55810371D01*
X99364251Y-55742897D01*
X99364250Y-55742895D01*
X99361399Y-55739331D01*
X99165154Y-55556009D01*
X99005436Y-55445208D01*
X98948254Y-55405539D01*
X98948249Y-55405536D01*
X98944501Y-55402936D01*
X98940416Y-55400904D01*
X98940413Y-55400902D01*
X98747520Y-55304940D01*
X98704062Y-55283320D01*
X98699728Y-55281899D01*
X98699725Y-55281898D01*
X98453207Y-55201085D01*
X98453202Y-55201084D01*
X98448874Y-55199665D01*
X98444382Y-55198885D01*
X98188064Y-55154380D01*
X98188056Y-55154379D01*
X98184283Y-55153724D01*
X98175622Y-55153293D01*
X98101004Y-55149578D01*
X98100996Y-55149578D01*
X98099433Y-55149500D01*
X97931777Y-55149500D01*
X97929509Y-55149665D01*
X97929497Y-55149665D01*
X97799177Y-55159121D01*
X97732154Y-55163984D01*
X97727699Y-55164968D01*
X97727696Y-55164968D01*
X97474380Y-55220895D01*
X97474376Y-55220896D01*
X97469920Y-55221880D01*
X97405879Y-55246143D01*
X97223059Y-55315407D01*
X97223056Y-55315408D01*
X97218789Y-55317025D01*
X96984024Y-55447426D01*
X96980392Y-55450198D01*
X96774167Y-55607583D01*
X96774163Y-55607587D01*
X96770542Y-55610350D01*
X96582815Y-55802386D01*
X96580130Y-55806075D01*
X96448580Y-55986805D01*
X96424775Y-56019509D01*
X96422651Y-56023547D01*
X96301860Y-56253132D01*
X96301857Y-56253138D01*
X96299735Y-56257172D01*
X96298215Y-56261477D01*
X96298213Y-56261481D01*
X96211835Y-56506084D01*
X96210312Y-56510397D01*
X96158380Y-56773878D01*
X96158153Y-56778431D01*
X96158153Y-56778434D01*
X96148992Y-56962474D01*
X96145028Y-57042095D01*
X95250000Y-57042095D01*
X95250000Y-56537034D01*
X95252421Y-56512453D01*
X95252477Y-56512171D01*
X95254898Y-56500000D01*
X95252477Y-56487829D01*
X95252477Y-56475418D01*
X95252842Y-56475418D01*
X95252124Y-56464880D01*
X95265945Y-56236399D01*
X95267779Y-56221295D01*
X95314007Y-55969038D01*
X95317648Y-55954265D01*
X95364975Y-55802386D01*
X95393948Y-55709408D01*
X95399342Y-55695186D01*
X95499728Y-55472140D01*
X95504596Y-55461324D01*
X95511665Y-55447854D01*
X95644344Y-55228376D01*
X95652987Y-55215854D01*
X95811155Y-55013968D01*
X95821245Y-55002580D01*
X96002580Y-54821245D01*
X96013968Y-54811155D01*
X96215854Y-54652987D01*
X96228376Y-54644344D01*
X96447854Y-54511665D01*
X96461324Y-54504596D01*
X96695190Y-54399340D01*
X96709408Y-54393948D01*
X96954264Y-54317648D01*
X96969038Y-54314007D01*
X97221295Y-54267779D01*
X97236399Y-54265945D01*
X97324875Y-54260593D01*
X97464882Y-54252124D01*
X97475418Y-54252842D01*
X97475418Y-54252477D01*
X97487829Y-54252477D01*
X97500000Y-54254898D01*
X97512415Y-54252428D01*
X97537016Y-54250007D01*
X142204661Y-54258926D01*
G37*
G04 #@! TD.AperFunction*
G04 #@! TD*
G04 #@! TA.AperFunction,Conductor*
G04 #@! TO.N,Net-(C6-Pad1)*
G36*
X138096486Y-80252421D02*
G01*
X138212808Y-80275559D01*
X138258226Y-80294372D01*
X138327271Y-80340506D01*
X138356841Y-80360264D01*
X138375934Y-80375934D01*
X139624066Y-81624066D01*
X139639736Y-81643159D01*
X139705628Y-81741773D01*
X139724441Y-81787192D01*
X139739370Y-81862243D01*
X139747579Y-81903514D01*
X139750000Y-81928095D01*
X139750000Y-83590083D01*
X139748449Y-83609793D01*
X139733545Y-83703895D01*
X139721363Y-83741388D01*
X139682666Y-83817335D01*
X139659494Y-83849227D01*
X139599227Y-83909494D01*
X139567335Y-83932666D01*
X139491388Y-83971363D01*
X139453895Y-83983545D01*
X139359793Y-83998449D01*
X139340083Y-84000000D01*
X138809917Y-84000000D01*
X138790207Y-83998449D01*
X138696105Y-83983545D01*
X138658612Y-83971363D01*
X138582665Y-83932666D01*
X138550773Y-83909494D01*
X138490506Y-83849227D01*
X138467334Y-83817335D01*
X138428637Y-83741388D01*
X138416455Y-83703895D01*
X138401551Y-83609793D01*
X138400000Y-83590083D01*
X138400000Y-82500000D01*
X137600000Y-81750000D01*
X137159917Y-81750000D01*
X137140207Y-81748449D01*
X137046105Y-81733545D01*
X137008612Y-81721363D01*
X136932665Y-81682666D01*
X136900773Y-81659494D01*
X136840506Y-81599227D01*
X136817334Y-81567335D01*
X136778637Y-81491388D01*
X136766455Y-81453896D01*
X136756959Y-81393940D01*
X136755408Y-81374229D01*
X136755408Y-81323328D01*
X136756440Y-81307235D01*
X136756456Y-81307114D01*
X136756859Y-81304716D01*
X136760380Y-81265467D01*
X136760531Y-81253125D01*
X136757970Y-81213792D01*
X136756679Y-81204777D01*
X136755408Y-81186929D01*
X136755408Y-80823328D01*
X136756440Y-80807235D01*
X136756456Y-80807114D01*
X136756859Y-80804716D01*
X136760380Y-80765467D01*
X136760531Y-80753125D01*
X136757970Y-80713792D01*
X136756679Y-80704777D01*
X136755408Y-80686929D01*
X136755408Y-80625771D01*
X136756959Y-80606060D01*
X136766455Y-80546104D01*
X136778637Y-80508612D01*
X136817334Y-80432665D01*
X136840506Y-80400773D01*
X136900773Y-80340506D01*
X136932665Y-80317334D01*
X137008612Y-80278637D01*
X137046105Y-80266455D01*
X137140207Y-80251551D01*
X137159917Y-80250000D01*
X138071905Y-80250000D01*
X138096486Y-80252421D01*
G37*
G04 #@! TD.AperFunction*
G04 #@! TD*
G04 #@! TA.AperFunction,Conductor*
G04 #@! TO.N,Net-(C8-Pad1)*
G36*
X178096486Y-80252421D02*
G01*
X178212808Y-80275559D01*
X178258226Y-80294372D01*
X178327271Y-80340506D01*
X178356841Y-80360264D01*
X178375934Y-80375934D01*
X179624066Y-81624066D01*
X179639736Y-81643159D01*
X179705628Y-81741773D01*
X179724441Y-81787192D01*
X179739370Y-81862243D01*
X179747579Y-81903514D01*
X179750000Y-81928095D01*
X179750000Y-83590083D01*
X179748449Y-83609793D01*
X179733545Y-83703895D01*
X179721363Y-83741388D01*
X179682666Y-83817335D01*
X179659494Y-83849227D01*
X179599227Y-83909494D01*
X179567335Y-83932666D01*
X179491388Y-83971363D01*
X179453895Y-83983545D01*
X179359793Y-83998449D01*
X179340083Y-84000000D01*
X178809917Y-84000000D01*
X178790207Y-83998449D01*
X178696105Y-83983545D01*
X178658612Y-83971363D01*
X178582665Y-83932666D01*
X178550773Y-83909494D01*
X178490506Y-83849227D01*
X178467334Y-83817335D01*
X178428637Y-83741388D01*
X178416455Y-83703895D01*
X178401551Y-83609793D01*
X178400000Y-83590083D01*
X178400000Y-82500000D01*
X177600000Y-81750000D01*
X177159917Y-81750000D01*
X177140207Y-81748449D01*
X177046105Y-81733545D01*
X177008612Y-81721363D01*
X176932665Y-81682666D01*
X176900773Y-81659494D01*
X176840506Y-81599227D01*
X176817334Y-81567335D01*
X176778637Y-81491388D01*
X176766455Y-81453895D01*
X176751551Y-81359793D01*
X176750000Y-81340083D01*
X176750000Y-80659917D01*
X176751551Y-80640207D01*
X176766455Y-80546105D01*
X176778637Y-80508612D01*
X176817334Y-80432665D01*
X176840506Y-80400773D01*
X176900773Y-80340506D01*
X176932665Y-80317334D01*
X177008612Y-80278637D01*
X177046105Y-80266455D01*
X177140207Y-80251551D01*
X177159917Y-80250000D01*
X178071905Y-80250000D01*
X178096486Y-80252421D01*
G37*
G04 #@! TD.AperFunction*
G04 #@! TD*
G04 #@! TA.AperFunction,Conductor*
G04 #@! TO.N,Net-(C5-Pad1)*
G36*
X175859793Y-80251551D02*
G01*
X175953895Y-80266455D01*
X175991388Y-80278637D01*
X176067335Y-80317334D01*
X176099227Y-80340506D01*
X176159494Y-80400773D01*
X176182666Y-80432665D01*
X176221363Y-80508612D01*
X176233545Y-80546105D01*
X176248449Y-80640207D01*
X176250000Y-80659917D01*
X176250000Y-81365081D01*
X176248449Y-81384792D01*
X176234768Y-81471170D01*
X176222586Y-81508662D01*
X176187440Y-81577640D01*
X176164268Y-81609532D01*
X176109532Y-81664268D01*
X176077640Y-81687440D01*
X176008662Y-81722586D01*
X175971170Y-81734768D01*
X175884792Y-81748449D01*
X175865081Y-81750000D01*
X175500000Y-81750000D01*
X174750000Y-82500000D01*
X174750000Y-83290083D01*
X174748449Y-83309793D01*
X174733545Y-83403895D01*
X174721363Y-83441388D01*
X174682666Y-83517335D01*
X174659494Y-83549227D01*
X174599227Y-83609494D01*
X174567335Y-83632666D01*
X174491388Y-83671363D01*
X174453895Y-83683545D01*
X174359793Y-83698449D01*
X174340083Y-83700000D01*
X173659917Y-83700000D01*
X173640207Y-83698449D01*
X173546105Y-83683545D01*
X173508612Y-83671363D01*
X173432665Y-83632666D01*
X173400773Y-83609494D01*
X173340506Y-83549227D01*
X173317334Y-83517335D01*
X173278637Y-83441388D01*
X173266455Y-83403895D01*
X173251551Y-83309793D01*
X173250000Y-83290083D01*
X173250000Y-82178095D01*
X173252421Y-82153514D01*
X173275558Y-82037194D01*
X173294372Y-81991773D01*
X173360264Y-81893159D01*
X173375934Y-81874066D01*
X174874066Y-80375934D01*
X174893159Y-80360264D01*
X174922729Y-80340506D01*
X174991774Y-80294372D01*
X175037192Y-80275559D01*
X175153514Y-80252421D01*
X175178095Y-80250000D01*
X175840083Y-80250000D01*
X175859793Y-80251551D01*
G37*
G04 #@! TD.AperFunction*
G04 #@! TD*
G04 #@! TA.AperFunction,Conductor*
G04 #@! TO.N,Net-(C4-Pad1)*
G36*
X156609793Y-80251551D02*
G01*
X156703895Y-80266455D01*
X156741388Y-80278637D01*
X156817335Y-80317334D01*
X156849227Y-80340506D01*
X156909494Y-80400773D01*
X156932666Y-80432665D01*
X156971363Y-80508612D01*
X156983545Y-80546105D01*
X156998449Y-80640207D01*
X157000000Y-80659917D01*
X157000000Y-81340083D01*
X156998449Y-81359793D01*
X156983545Y-81453895D01*
X156971363Y-81491388D01*
X156932666Y-81567335D01*
X156909494Y-81599227D01*
X156849227Y-81659494D01*
X156817335Y-81682666D01*
X156741388Y-81721363D01*
X156703895Y-81733545D01*
X156609793Y-81748449D01*
X156590083Y-81750000D01*
X156000000Y-81750000D01*
X155250000Y-82500000D01*
X155250000Y-83290083D01*
X155248449Y-83309793D01*
X155233545Y-83403895D01*
X155221363Y-83441388D01*
X155182666Y-83517335D01*
X155159494Y-83549227D01*
X155099227Y-83609494D01*
X155067335Y-83632666D01*
X154991388Y-83671363D01*
X154953895Y-83683545D01*
X154859793Y-83698449D01*
X154840083Y-83700000D01*
X154159917Y-83700000D01*
X154140207Y-83698449D01*
X154046105Y-83683545D01*
X154008612Y-83671363D01*
X153932665Y-83632666D01*
X153900773Y-83609494D01*
X153840506Y-83549227D01*
X153817334Y-83517335D01*
X153778637Y-83441388D01*
X153766455Y-83403895D01*
X153751551Y-83309793D01*
X153750000Y-83290083D01*
X153750000Y-82178095D01*
X153752421Y-82153514D01*
X153775558Y-82037194D01*
X153794372Y-81991773D01*
X153860264Y-81893159D01*
X153875934Y-81874066D01*
X155374066Y-80375934D01*
X155393159Y-80360264D01*
X155422729Y-80340506D01*
X155491774Y-80294372D01*
X155537192Y-80275559D01*
X155653514Y-80252421D01*
X155678095Y-80250000D01*
X156590083Y-80250000D01*
X156609793Y-80251551D01*
G37*
G04 #@! TD.AperFunction*
G04 #@! TD*
G04 #@! TA.AperFunction,Conductor*
G04 #@! TO.N,Net-(C7-Pad1)*
G36*
X158596486Y-80252421D02*
G01*
X158712808Y-80275559D01*
X158758226Y-80294372D01*
X158827271Y-80340506D01*
X158856841Y-80360264D01*
X158875934Y-80375934D01*
X160124066Y-81624066D01*
X160139736Y-81643159D01*
X160195867Y-81727164D01*
X160205628Y-81741773D01*
X160224441Y-81787192D01*
X160239370Y-81862243D01*
X160247579Y-81903514D01*
X160250000Y-81928095D01*
X160250000Y-83590083D01*
X160248449Y-83609793D01*
X160233545Y-83703895D01*
X160221363Y-83741388D01*
X160182666Y-83817335D01*
X160159494Y-83849227D01*
X160099227Y-83909494D01*
X160067335Y-83932666D01*
X159991388Y-83971363D01*
X159953895Y-83983545D01*
X159859793Y-83998449D01*
X159840083Y-84000000D01*
X159309917Y-84000000D01*
X159290207Y-83998449D01*
X159196105Y-83983545D01*
X159158612Y-83971363D01*
X159082665Y-83932666D01*
X159050773Y-83909494D01*
X158990506Y-83849227D01*
X158967334Y-83817335D01*
X158928637Y-83741388D01*
X158916455Y-83703895D01*
X158901551Y-83609793D01*
X158900000Y-83590083D01*
X158900000Y-82500000D01*
X158100000Y-81750000D01*
X157812410Y-81750000D01*
X157787829Y-81747579D01*
X157778124Y-81745649D01*
X157709775Y-81732053D01*
X157664358Y-81713241D01*
X157608705Y-81676055D01*
X157573944Y-81641294D01*
X157536759Y-81585642D01*
X157517946Y-81540223D01*
X157502421Y-81462171D01*
X157500000Y-81437590D01*
X157500000Y-80659917D01*
X157501551Y-80640207D01*
X157516455Y-80546105D01*
X157528637Y-80508612D01*
X157567334Y-80432665D01*
X157590506Y-80400773D01*
X157650773Y-80340506D01*
X157682665Y-80317334D01*
X157758612Y-80278637D01*
X157796105Y-80266455D01*
X157890207Y-80251551D01*
X157909917Y-80250000D01*
X158571905Y-80250000D01*
X158596486Y-80252421D01*
G37*
G04 #@! TD.AperFunction*
G04 #@! TD*
G04 #@! TA.AperFunction,Conductor*
G04 #@! TO.N,Net-(C3-Pad1)*
G36*
X136109793Y-80251551D02*
G01*
X136203895Y-80266455D01*
X136241388Y-80278637D01*
X136317335Y-80317334D01*
X136349227Y-80340506D01*
X136409494Y-80400773D01*
X136432666Y-80432665D01*
X136471363Y-80508612D01*
X136483545Y-80546105D01*
X136498449Y-80640207D01*
X136500000Y-80659917D01*
X136500000Y-81340083D01*
X136498449Y-81359793D01*
X136483545Y-81453895D01*
X136471363Y-81491388D01*
X136432666Y-81567335D01*
X136409494Y-81599227D01*
X136349227Y-81659494D01*
X136317335Y-81682666D01*
X136241388Y-81721363D01*
X136203895Y-81733545D01*
X136109793Y-81748449D01*
X136090083Y-81750000D01*
X135500000Y-81750000D01*
X134750000Y-82500000D01*
X134750000Y-83290083D01*
X134748449Y-83309793D01*
X134733545Y-83403895D01*
X134721363Y-83441388D01*
X134682666Y-83517335D01*
X134659494Y-83549227D01*
X134599227Y-83609494D01*
X134567335Y-83632666D01*
X134491388Y-83671363D01*
X134453895Y-83683545D01*
X134359793Y-83698449D01*
X134340083Y-83700000D01*
X133659917Y-83700000D01*
X133640207Y-83698449D01*
X133546105Y-83683545D01*
X133508612Y-83671363D01*
X133432665Y-83632666D01*
X133400773Y-83609494D01*
X133340506Y-83549227D01*
X133317334Y-83517335D01*
X133278637Y-83441388D01*
X133266455Y-83403895D01*
X133251551Y-83309793D01*
X133250000Y-83290083D01*
X133250000Y-82178095D01*
X133252421Y-82153514D01*
X133275558Y-82037194D01*
X133294372Y-81991773D01*
X133360264Y-81893159D01*
X133375934Y-81874066D01*
X134874066Y-80375934D01*
X134893159Y-80360264D01*
X134922729Y-80340506D01*
X134991774Y-80294372D01*
X135037192Y-80275559D01*
X135153514Y-80252421D01*
X135178095Y-80250000D01*
X136090083Y-80250000D01*
X136109793Y-80251551D01*
G37*
G04 #@! TD.AperFunction*
G04 #@! TD*
M02*
